<?xml version="1.0" encoding="utf-8"?>
<!-- Generator: Adobe Illustrator 22.0.0, SVG Export Plug-In . SVG Version: 6.00 Build 0)  -->
<svg version="1.1" xmlns="http://www.w3.org/2000/svg" xmlns:xlink="http://www.w3.org/1999/xlink" x="0px" y="0px"
	 viewBox="0 0 256 256" style="enable-background:new 0 0 256 256;" xml:space="preserve">
<style type="text/css">
	.st0{display:none;}
	.st1{display:inline;}
	.st2{fill:none;stroke:#6B1D1D;stroke-width:0.5;stroke-miterlimit:10;}
	.st3{fill:#3A312A;}
	.st4{fill:#87796F;}
	.st5{fill:#D5DE58;}
	.st6{fill:#695B51;}
	.st7{fill:#FCE8CB;}
	.st8{fill:#F16C7A;}
	.st9{fill:#8AC6DD;}
	.st10{fill:#DECAAD;}
	.st11{fill:#D6DF58;}
	.st12{fill-rule:evenodd;clip-rule:evenodd;fill:#FCE8CB;}
	.st13{fill:#F5978A;}
	.st14{fill:#D7E057;}
	.st15{fill-rule:evenodd;clip-rule:evenodd;fill:#87796F;}
	.st16{fill:#6CA8BF;}
	.st17{fill:#B9C239;}
	.st18{fill:#D34E5C;}
	.st19{fill:#FAE6CA;}
	.st20{fill:#F8E4C8;}
	.st21{fill:#8AC5DC;}
	.st22{fill:#EF6D7A;}
	.st23{fill:#EB6E7A;}
	.st24{fill:#89C4DB;}
	.st25{fill-rule:evenodd;clip-rule:evenodd;fill:#F16C7A;}
	.st26{fill:#F7E3C7;}
	.st27{fill:#F6E2C6;}
	.st28{fill:#ED6E7A;}
	.st29{fill:#8AC3DA;}
	.st30{fill:#D5DC57;}
	.st31{fill-rule:evenodd;clip-rule:evenodd;fill:#D7E057;}
	.st32{fill-rule:evenodd;clip-rule:evenodd;fill:#F8E4C8;}
	.st33{fill:#D4DB56;}
	.st34{fill:#F59689;}
	.st35{fill:#DDC9AC;}
	.st36{fill:#D24E5C;}
	.st37{fill:#6A5C52;}
	.st38{fill:#6CA6BE;}
	.st39{fill:#B8C136;}
	.st40{fill-rule:evenodd;clip-rule:evenodd;fill:#FAE6CA;}
</style>
<g id="Layer_2" class="st0">
	<g class="st1">
		<g>
			<line class="st2" x1="0" y1="4.829" x2="256" y2="4.829"/>
			<line class="st2" x1="0" y1="16.56" x2="256" y2="16.56"/>
			<line class="st2" x1="0" y1="28.29" x2="256" y2="28.29"/>
			<line class="st2" x1="0" y1="40.021" x2="256" y2="40.021"/>
			<line class="st2" x1="0" y1="51.751" x2="256" y2="51.751"/>
			<line class="st2" x1="0" y1="63.482" x2="256" y2="63.482"/>
			<line class="st2" x1="0" y1="75.213" x2="256" y2="75.213"/>
			<line class="st2" x1="0" y1="86.943" x2="256" y2="86.943"/>
			<line class="st2" x1="0" y1="98.674" x2="256" y2="98.674"/>
			<line class="st2" x1="0" y1="110.404" x2="256" y2="110.404"/>
			<line class="st2" x1="0" y1="122.135" x2="256" y2="122.135"/>
			<line class="st2" x1="0" y1="133.865" x2="256" y2="133.865"/>
			<line class="st2" x1="0" y1="145.596" x2="256" y2="145.596"/>
			<line class="st2" x1="0" y1="157.326" x2="256" y2="157.326"/>
			<line class="st2" x1="0" y1="169.057" x2="256" y2="169.057"/>
			<line class="st2" x1="0" y1="180.788" x2="256" y2="180.788"/>
			<line class="st2" x1="0" y1="192.518" x2="256" y2="192.518"/>
			<line class="st2" x1="0" y1="204.249" x2="256" y2="204.249"/>
			<line class="st2" x1="0" y1="215.979" x2="256" y2="215.979"/>
			<line class="st2" x1="0" y1="227.71" x2="256" y2="227.71"/>
			<line class="st2" x1="0" y1="239.44" x2="256" y2="239.44"/>
			<line class="st2" x1="0" y1="251.171" x2="256" y2="251.171"/>
		</g>
		<g>
			<line class="st2" x1="251.171" y1="0" x2="251.171" y2="256"/>
			<line class="st2" x1="239.44" y1="0" x2="239.44" y2="256"/>
			<line class="st2" x1="227.71" y1="0" x2="227.71" y2="256"/>
			<line class="st2" x1="215.979" y1="0" x2="215.979" y2="256"/>
			<line class="st2" x1="204.249" y1="0" x2="204.249" y2="256"/>
			<line class="st2" x1="192.518" y1="0" x2="192.518" y2="256"/>
			<line class="st2" x1="180.787" y1="0" x2="180.787" y2="256"/>
			<line class="st2" x1="169.057" y1="0" x2="169.057" y2="256"/>
			<line class="st2" x1="157.326" y1="0" x2="157.326" y2="256"/>
			<line class="st2" x1="145.596" y1="0" x2="145.596" y2="256"/>
			<line class="st2" x1="133.865" y1="0" x2="133.865" y2="256"/>
			<line class="st2" x1="122.135" y1="0" x2="122.135" y2="256"/>
			<line class="st2" x1="110.404" y1="0" x2="110.404" y2="256"/>
			<line class="st2" x1="98.674" y1="0" x2="98.674" y2="256"/>
			<line class="st2" x1="86.943" y1="0" x2="86.943" y2="256"/>
			<line class="st2" x1="75.212" y1="0" x2="75.212" y2="256"/>
			<line class="st2" x1="63.482" y1="0" x2="63.482" y2="256"/>
			<line class="st2" x1="51.751" y1="0" x2="51.751" y2="256"/>
			<line class="st2" x1="40.021" y1="0" x2="40.021" y2="256"/>
			<line class="st2" x1="28.29" y1="0" x2="28.29" y2="256"/>
			<line class="st2" x1="16.56" y1="0" x2="16.56" y2="256"/>
			<line class="st2" x1="4.829" y1="0" x2="4.829" y2="256"/>
		</g>
	</g>
</g>
<g id="Layer_1">
	<g>
		<path class="st11" d="M47.911,26.22c0,0,3.408,12.659,13.222,13.246c0,0-13.1,4.525-13.321,14.202c0,0-2.579-13.572-12.925-14.059
			C34.887,39.609,46.937,37.784,47.911,26.22z"/>
		<path class="st3" d="M47.811,55.168c-0.713,0-1.335-0.506-1.472-1.217c-0.024-0.125-2.495-12.418-11.523-12.844
			c-0.77-0.036-1.387-0.65-1.427-1.421c-0.04-0.77,0.511-1.444,1.273-1.561c0.441-0.068,10.894-1.816,11.754-12.032
			c0.061-0.726,0.634-1.301,1.359-1.367c0.737-0.064,1.393,0.399,1.583,1.101c0.032,0.116,3.259,11.626,11.863,12.141
			c0.714,0.042,1.298,0.583,1.396,1.292c0.098,0.708-0.319,1.388-0.994,1.622c-0.121,0.042-12.118,4.311-12.313,12.82
			c-0.018,0.767-0.61,1.396-1.374,1.46C47.895,55.166,47.852,55.168,47.811,55.168z M40.07,39.438
			c3.878,1.969,6.23,5.746,7.587,8.876c2.026-4.021,5.941-6.787,8.949-8.427c-4.134-1.843-6.783-5.651-8.333-8.723
			C46.478,35.525,43,38.033,40.07,39.438z"/>
		<path class="st11" d="M26.212,43.2c0,0,2.411,8.954,9.352,9.369c0,0-9.266,3.201-9.422,10.045c0,0-1.824-9.6-9.142-9.944
			C17,52.671,25.524,51.38,26.212,43.2z"/>
		<path class="st3" d="M26.141,64.115c-0.713,0-1.337-0.508-1.472-1.22c-0.016-0.082-1.704-8.442-7.739-8.727
			c-0.77-0.036-1.387-0.65-1.427-1.421c-0.04-0.77,0.511-1.444,1.273-1.561c0.296-0.047,7.364-1.242,7.942-8.113
			c0.061-0.726,0.635-1.303,1.36-1.368c0.729-0.071,1.392,0.4,1.582,1.101l0,0c0.021,0.079,2.228,7.92,7.994,8.265
			c0.715,0.042,1.299,0.584,1.396,1.293c0.098,0.709-0.319,1.388-0.996,1.622c-0.081,0.028-8.282,2.953-8.413,8.662
			c-0.018,0.768-0.611,1.397-1.376,1.461C26.224,64.113,26.182,64.115,26.141,64.115z M21.622,52.588
			c2.107,1.332,3.523,3.394,4.447,5.279c1.376-2.232,3.515-3.872,5.365-4.973c-2.287-1.269-3.884-3.35-4.941-5.224
			C25.319,49.958,23.478,51.547,21.622,52.588z"/>
		<path class="st11" d="M26.212,16.543c0,0,2.411,8.954,9.352,9.37c0,0-9.266,3.201-9.422,10.045c0,0-1.824-9.6-9.142-9.944
			C17,26.014,25.524,24.722,26.212,16.543z"/>
		<path class="st3" d="M26.141,37.458c-0.713,0-1.337-0.508-1.472-1.22c-0.016-0.082-1.704-8.442-7.739-8.727
			c-0.771-0.036-1.388-0.65-1.428-1.421c-0.04-0.769,0.511-1.444,1.273-1.56c0.295-0.047,7.364-1.243,7.942-8.113
			c0.061-0.726,0.635-1.303,1.36-1.368c0.729-0.064,1.392,0.399,1.582,1.102l0,0c0.021,0.079,2.228,7.92,7.994,8.265
			c0.715,0.042,1.299,0.584,1.396,1.293c0.098,0.709-0.319,1.388-0.996,1.622c-0.081,0.028-8.282,2.953-8.413,8.662
			c-0.018,0.768-0.611,1.397-1.376,1.461C26.224,37.456,26.182,37.458,26.141,37.458z M21.622,25.93
			c2.107,1.333,3.523,3.394,4.447,5.28c1.376-2.232,3.515-3.872,5.365-4.973c-2.287-1.269-3.884-3.35-4.941-5.224
			C25.319,23.3,23.478,24.889,21.622,25.93z"/>
		<path class="st11" d="M53.312,93.055l-9.641,4.887c-2.215,1.123-4.238,2.589-5.994,4.345
			c-12.169,12.169-7.564,32.858,8.616,38.718l40.877,14.803c6.285,2.276,11.303,7.121,13.8,13.321l19.551,48.563
			c6.293,15.632,26.507,19.757,38.422,7.842l0.991-0.991c1.756-1.756,3.222-3.779,4.345-5.994l18.629-36.755
			c4.595-9.066,2.842-20.058-4.345-27.245l-37.904-37.904l-32.988-32.988c-7.187-7.187-18.179-8.94-27.245-4.345l-15.544,7.878
			L53.312,93.055z"/>
		<path class="st3" d="M142.35,233.922c-1.67,0-3.352-0.167-5.026-0.509c-8.249-1.684-15.05-7.352-18.194-15.16L99.578,169.69
			c-2.333-5.797-7.042-10.343-12.919-12.473l-40.876-14.803c-8.084-2.928-14.025-9.685-15.893-18.078
			c-1.868-8.392,0.647-17.032,6.727-23.111c1.873-1.872,4.018-3.427,6.376-4.621l9.641-4.887c0.738-0.375,1.642-0.08,2.016,0.66
			c0.375,0.738,0.079,1.642-0.66,2.016l-9.641,4.887c-2.076,1.052-3.963,2.42-5.611,4.066c-5.35,5.351-7.562,12.953-5.919,20.339
			c1.643,7.385,6.871,13.332,13.985,15.909l40.876,14.803c6.678,2.42,12.029,7.585,14.681,14.172l19.551,48.562
			c2.767,6.873,8.752,11.86,16.011,13.342c7.257,1.479,14.72-0.762,19.959-6l0.991-0.991c1.645-1.645,3.014-3.532,4.067-5.611
			l18.629-36.755c4.314-8.51,2.679-18.76-4.067-25.507L106.61,84.718c-6.746-6.748-16.997-8.382-25.506-4.067L65.56,88.528
			c-0.739,0.376-1.642,0.08-2.016-0.66c-0.375-0.738-0.079-1.642,0.66-2.016l15.544-7.878c9.67-4.902,21.319-3.044,28.984,4.622
			l70.892,70.892c7.667,7.666,9.524,19.314,4.622,28.984l-18.629,36.755c-1.197,2.362-2.753,4.508-4.622,6.377l-0.991,0.991
			C155.258,231.34,148.908,233.922,142.35,233.922z"/>
		<path class="st4" d="M74.242,165.352l22.626,22.626l-11.546,11.546c-1.914-4.71-5.206-9.156-9.338-13.288
			c-4.132-4.132-8.578-7.424-13.288-9.338L74.242,165.352z"/>
		<path class="st3" d="M85.322,201.023c-0.099,0-0.199-0.01-0.297-0.03c-0.493-0.1-0.903-0.439-1.092-0.905
			c-1.719-4.229-4.75-8.532-9.009-12.792c-4.26-4.259-8.564-7.29-12.792-9.009c-0.466-0.189-0.806-0.6-0.905-1.092
			c-0.1-0.493,0.054-1.003,0.41-1.358l11.546-11.546c0.586-0.586,1.535-0.586,2.121,0l22.627,22.626
			c0.281,0.281,0.439,0.663,0.439,1.06c0,0.398-0.158,0.779-0.439,1.061l-11.546,11.546
			C86.099,200.868,85.716,201.023,85.322,201.023z M65.293,176.422c3.932,1.94,7.875,4.877,11.752,8.753
			c3.876,3.876,6.812,7.82,8.753,11.752l8.95-8.949l-20.505-20.505L65.293,176.422z"/>
		<path class="st9" d="M243.555,18.665c0,0,11.192,32.177-14.311,77.855c-5.773,10.331-13.42,21.36-23.518,32.856
			c-3.403,3.889-7.09,7.839-11.08,11.83c-27.994,27.994-58.602,47.076-83.152,53.801c-4.092,1.114-8.336-0.01-11.212-2.887
			L70.1,161.938c-2.876-2.876-4.001-7.12-2.876-11.202c6.715-24.561,25.796-55.168,53.791-83.162
			c3.991-3.991,7.941-7.677,11.83-11.08c11.496-10.057,22.566-17.684,32.947-23.426C211.084,8.031,243.555,18.665,243.555,18.665z"
			/>
		<path class="st3" d="M108.377,196.924c-3.416,0-6.728-1.314-9.156-3.743L69.04,162.999c-3.264-3.265-4.514-8.116-3.262-12.661
			c7.089-25.931,26.837-56.484,54.176-83.824c3.892-3.892,7.896-7.643,11.902-11.149c10.809-9.455,21.981-17.399,33.209-23.61
			c45.342-25.064,77.605-14.958,78.957-14.516c0.445,0.146,0.796,0.491,0.95,0.933c0.466,1.34,11.119,33.34-14.418,79.08
			c-6.252,11.188-14.226,22.328-23.7,33.114c-3.505,4.005-7.256,8.01-11.147,11.9c-27.331,27.332-57.881,47.082-83.816,54.186
			C110.728,196.77,109.546,196.924,108.377,196.924z M224.988,17.977c-13.716,0-34.292,3.038-58.472,16.403
			c-11.041,6.108-22.038,13.928-32.686,23.243c-3.956,3.462-7.911,7.167-11.756,11.012c-26.982,26.982-46.447,57.052-53.404,82.497
			c-0.967,3.51-0.012,7.243,2.49,9.746l30.182,30.182c2.501,2.502,6.241,3.461,9.757,2.5c25.445-6.971,55.511-26.439,82.485-53.414
			c3.845-3.844,7.55-7.8,11.013-11.757c9.337-10.63,17.188-21.597,23.337-32.6c22.807-40.85,15.832-70.921,14.423-75.904
			C240.337,19.352,234.214,17.977,224.988,17.977z"/>
		<path class="st8" d="M28.977,239.576c8.125,0.098,16.003-2.977,21.781-8.69c0.057-0.056,0.113-0.112,0.17-0.169
			c0.631-0.631,3.814-1.268-2.835,8.596c11.485-0.955,22.655-3.682,28.745-9.772c16.216-16.216,11.345-31.116-0.847-43.308
			c-12.192-12.192-27.092-17.063-43.308-0.847c-5.724,5.724-7.892,11.777-9.128,17.932c4.518-0.79,9.144-0.572,8.783-0.316
			c-9.075,6.452-9.065,12.02-13.589,22.194c-1.75,3.936-4.414,7.796-8.711,11.517c-0.269,0.232,0.88,0.626,3.064,1.057
			c2.978,0.586,5.779,1.098,8.442,1.471c1.289,0.18,2.584,0.276,3.885,0.291L28.977,239.576z"/>
		<path class="st3" d="M29.348,241.078c-0.13,0-0.259,0-0.389-0.002l-3.547-0.043c-1.371-0.017-2.742-0.12-4.075-0.307
			c-2.348-0.329-4.976-0.786-8.523-1.484c-3.117-0.615-3.993-1.038-4.261-2.054c-0.146-0.555,0.072-1.237,0.507-1.611
			c3.756-3.253,6.478-6.849,8.32-10.99c1.077-2.422,1.911-4.627,2.647-6.572c2.03-5.366,3.59-9.489,8.262-13.703
			c-1.342,0.066-2.916,0.211-4.475,0.483c-0.486,0.08-0.986-0.076-1.332-0.431c-0.346-0.355-0.495-0.857-0.397-1.342
			c1.137-5.667,3.16-12.319,9.538-18.697c7.889-7.89,16.086-11.489,24.371-10.661c7.027,0.69,14.113,4.562,21.059,11.509
			c6.946,6.946,10.818,14.031,11.509,21.059c0.814,8.283-2.773,16.482-10.662,24.37c-5.601,5.601-15.587,9.034-29.681,10.207
			c-0.575,0.046-1.126-0.238-1.418-0.736c-0.292-0.498-0.272-1.119,0.05-1.597c1.363-2.023,2.25-3.514,2.826-4.602
			C44.033,238.49,36.788,241.078,29.348,241.078z M12.83,236.184c0.173,0.036,0.36,0.075,0.564,0.115
			c3.489,0.687,6.068,1.136,8.359,1.457c1.208,0.169,2.45,0.263,3.695,0.277l3.547,0.043l0,0c0.118,0.002,0.236,0.002,0.354,0.002
			c7.633,0,15.034-2.998,20.354-8.259l0.164-0.163c0.753-0.754,2.155-1.08,3.107-0.293c1.219,1.005,1.316,2.856-1.934,8.154
			c11.606-1.319,20.123-4.422,24.738-9.037c7.223-7.223,10.519-14.609,9.797-21.956c-0.621-6.318-4.202-12.788-10.645-19.23
			c-6.442-6.442-12.913-10.023-19.231-10.645c-7.341-0.719-14.732,2.575-21.956,9.797c-5.056,5.056-7.118,10.349-8.26,15.081
			c1.709-0.192,3.172-0.245,4.026-0.258c3.04-0.041,3.833,0.165,4.23,1.117c0.271,0.646,0.039,1.431-0.532,1.837
			c-6.508,4.628-8.047,8.695-10.376,14.853c-0.75,1.982-1.601,4.23-2.712,6.729C18.406,229.659,16.011,233.073,12.83,236.184z"/>
		<path class="st14" d="M44.897,185.625c11.643-11.643,22.34-8.145,31.094,0.608c8.753,8.753,12.251,19.451,0.608,31.094
			c-4.373,4.373-12.392,6.331-20.638,7.016c4.774-7.082,2.489-6.625,2.035-6.172c-8.118,8.114-15.893,7.279-27.156,5.064
			c-1.569-0.31-2.394-0.593-2.2-0.759c3.085-2.671,4.997-5.443,6.254-8.269c3.248-7.305,3.241-11.302,9.756-15.934
			c0.259-0.184-3.062-0.341-6.306,0.227C39.231,194.08,40.788,189.734,44.897,185.625z"/>
		<path class="st3" d="M42.667,226.252c-3.684,0-7.652-0.667-12.117-1.545c-2.092-0.414-3.107-0.725-3.387-1.782
			c-0.146-0.554,0.062-1.21,0.496-1.584c2.649-2.294,4.567-4.827,5.864-7.743c0.768-1.728,1.365-3.305,1.891-4.696
			c1.302-3.442,2.396-6.332,5.2-9.187c-0.643,0.058-1.327,0.142-2.012,0.262c-0.487,0.08-0.986-0.076-1.332-0.431
			c-0.346-0.354-0.495-0.856-0.397-1.342c0.829-4.131,2.305-8.981,6.963-13.64l0,0c5.757-5.757,11.756-8.381,17.838-7.776
			c5.146,0.505,10.319,3.326,15.377,8.385c5.058,5.058,7.879,10.231,8.385,15.377c0.597,6.078-2.02,12.08-7.777,17.837
			c-4.094,4.094-11.352,6.601-21.574,7.451c-0.573,0.041-1.126-0.238-1.418-0.736c-0.292-0.498-0.273-1.119,0.05-1.597
			c0.308-0.457,0.581-0.875,0.823-1.256C51.421,225.212,47.266,226.252,42.667,226.252z M31.498,221.836
			c10.789,2.105,17.936,2.771,25.437-4.726c0.686-0.687,1.92-0.961,2.799-0.238c1.147,0.946,0.944,2.569-0.85,5.658
			c7.798-0.986,13.521-3.132,16.654-6.265c5.092-5.092,7.417-10.281,6.912-15.423c-0.436-4.437-2.966-8.994-7.52-13.549
			c-4.555-4.555-9.113-7.085-13.549-7.52c-5.138-0.503-10.331,1.821-15.423,6.912l0,0c-3.342,3.343-4.828,6.84-5.664,10.02
			c2.349-0.259,5.229-0.296,5.755,0.965c0.27,0.647,0.042,1.421-0.531,1.827c-4.565,3.246-5.652,6.118-7.296,10.466
			c-0.541,1.429-1.153,3.048-1.956,4.854C35.114,217.403,33.545,219.717,31.498,221.836z"/>
		<path class="st8" d="M160.516,84.166l45.21,45.21c10.098-11.496,17.745-22.525,23.518-32.856l-63.453-63.453
			c-10.381,5.743-21.451,13.369-32.947,23.427l18.309,18.309L160.516,84.166z"/>
		<path class="st3" d="M205.727,130.877c-0.397,0-0.779-0.157-1.061-0.439l-45.21-45.211c-0.586-0.586-0.586-1.535,0-2.121
			c0.586-0.586,1.535-0.586,2.121,0l44.074,44.075c8.599-9.933,15.9-20.149,21.727-30.404L165.532,34.93
			c-10.293,5.79-20.538,13.062-30.49,21.642l17.172,17.171c0.586,0.586,0.586,1.535,0,2.121c-0.586,0.586-1.535,0.586-2.121,0
			l-18.31-18.309c-0.294-0.293-0.452-0.695-0.439-1.11c0.014-0.415,0.199-0.806,0.512-1.079c10.808-9.455,21.98-17.399,33.208-23.61
			c0.586-0.323,1.314-0.223,1.787,0.252l63.453,63.453c0.475,0.475,0.576,1.206,0.249,1.792
			c-6.252,11.187-14.226,22.328-23.7,33.115c-0.273,0.311-0.664,0.495-1.078,0.509C205.759,130.877,205.742,130.877,205.727,130.877
			z"/>
		<circle class="st7" cx="161.3" cy="56.767" r="9.271"/>
		<path class="st3" d="M161.3,67.532c-2.759,0-5.517-1.05-7.616-3.149c-4.198-4.199-4.198-11.033,0-15.232
			c4.2-4.2,11.034-4.198,15.232,0l0,0c4.198,4.199,4.198,11.033,0,15.232C166.816,66.482,164.058,67.532,161.3,67.532z M161.3,49
			c-1.99,0-3.981,0.757-5.495,2.271c-3.029,3.03-3.029,7.96,0,10.99c3.029,3.029,7.959,3.029,10.99,0c3.029-3.03,3.029-7.96,0-10.99
			C165.28,49.757,163.29,49,161.3,49z"/>
		<circle class="st7" cx="183.863" cy="79.33" r="9.271"/>
		<path class="st3" d="M183.862,90.101c-2.877,0-5.581-1.12-7.615-3.155c-2.035-2.034-3.155-4.738-3.155-7.616
			c0-2.877,1.12-5.581,3.155-7.615c2.034-2.035,4.738-3.155,7.615-3.155c2.877,0,5.582,1.12,7.616,3.155l0,0l0,0
			c2.035,2.034,3.155,4.739,3.155,7.615c0,2.878-1.12,5.582-3.155,7.616C189.444,88.98,186.74,90.101,183.862,90.101z
			 M183.862,71.559c-2.075,0-4.026,0.809-5.494,2.276c-1.468,1.468-2.276,3.419-2.276,5.494c0,2.076,0.809,4.027,2.276,5.495
			c1.468,1.468,3.419,2.276,5.494,2.276c2.076,0,4.027-0.809,5.495-2.276c1.468-1.468,2.276-3.419,2.276-5.495
			c0-2.075-0.809-4.026-2.276-5.494l0,0C187.89,72.367,185.938,71.559,183.862,71.559z"/>
		<circle class="st7" cx="206.426" cy="101.893" r="9.271"/>
		<path class="st3" d="M206.426,112.658c-2.759,0-5.517-1.05-7.616-3.149c-4.198-4.199-4.198-11.033,0-15.232
			c4.199-4.2,11.033-4.198,15.232,0l0,0c4.198,4.199,4.198,11.033,0,15.232C211.942,111.608,209.184,112.658,206.426,112.658z
			 M206.426,94.126c-1.99,0-3.98,0.757-5.495,2.271c-3.029,3.03-3.029,7.96,0,10.99c3.029,3.029,7.959,3.029,10.99,0
			c3.029-3.03,3.029-7.96,0-10.99C210.406,94.883,208.416,94.126,206.426,94.126z"/>
		<path class="st8" d="M98.743,175.672l-12.195-12.195c-2.591-2.591-2.223-6.893,0.771-9.006l41.422-29.227
			c2.349-1.658,5.551-1.383,7.584,0.65l0,0c2.033,2.033,2.308,5.235,0.65,7.584l-29.227,41.422
			C105.635,177.895,101.334,178.264,98.743,175.672z"/>
		<path class="st3" d="M102.916,178.903c-1.957,0-3.836-0.772-5.234-2.17l0,0l-12.195-12.195c-1.549-1.549-2.33-3.689-2.143-5.871
			c0.187-2.182,1.32-4.158,3.11-5.421l41.422-29.227c2.957-2.084,6.956-1.739,9.509,0.815c2.557,2.555,2.9,6.555,0.816,9.509
			l-29.228,41.424c-1.263,1.789-3.238,2.922-5.42,3.109C103.34,178.895,103.127,178.903,102.916,178.903z M99.803,174.612
			c0.921,0.921,2.194,1.383,3.494,1.274c1.299-0.111,2.474-0.785,3.226-1.851l29.228-41.423c1.24-1.758,1.036-4.138-0.485-5.658
			c-1.521-1.522-3.899-1.727-5.659-0.485l-41.421,29.228c-1.065,0.752-1.74,1.928-1.851,3.227c-0.111,1.298,0.354,2.571,1.275,3.493
			L99.803,174.612z"/>
		<path class="st16" d="M228.88,94.04l-8.89-8.89c17.93-39.56,8.56-66.48,8.56-66.48s-0.92-0.3-2.66-0.68
			c8.72,0.08,14.52,1.38,16.47,1.89C243.75,24.8,250.52,54.09,228.88,94.04z"/>
		<path class="st16" d="M196.61,122.39c-1.86,2.31-3.82,4.64-5.88,6.99c-3.41,3.89-7.09,7.84-11.08,11.83
			c-25.35,25.34-52.83,43.37-76.02,51.55c2.23,1.18,4.91,1.5,7.47,0.8c25.44-6.97,55.51-26.44,82.48-53.41
			c3.51-3.51,6.89-7.11,10.08-10.71L196.61,122.39z"/>
		<path class="st18" d="M218.64,88.04c-1.14,2.37-2.37,4.79-3.72,7.24c3.3,4.22,3,10.35-0.88,14.23c-2.1,2.1-4.86,3.15-7.61,3.15
			c-0.76,0-1.52-0.08-2.26-0.24c-1.78,2.5-3.66,5.04-5.68,7.6l7.16,7.16c8.6-9.93,15.9-20.15,21.73-30.4L218.64,88.04z"/>
	</g>
</g>
</svg>
