<?xml version="1.0" encoding="utf-8"?>
<!-- Generator: Adobe Illustrator 22.0.0, SVG Export Plug-In . SVG Version: 6.00 Build 0)  -->
<svg version="1.1" xmlns="http://www.w3.org/2000/svg" xmlns:xlink="http://www.w3.org/1999/xlink" x="0px" y="0px"
	 viewBox="0 0 256 256" style="enable-background:new 0 0 256 256;" xml:space="preserve">
<style type="text/css">
	.st0{display:none;}
	.st1{display:inline;}
	.st2{fill:none;stroke:#6B1D1D;stroke-width:0.5;stroke-miterlimit:10;}
	.st3{fill:#3A312A;}
	.st4{fill:#87796F;}
	.st5{fill:#D5DE58;}
	.st6{fill:#695B51;}
	.st7{fill:#FCE8CB;}
	.st8{fill:#F16C7A;}
	.st9{fill:#8AC6DD;}
	.st10{fill:#DECAAD;}
	.st11{fill:#D6DF58;}
	.st12{fill-rule:evenodd;clip-rule:evenodd;fill:#FCE8CB;}
	.st13{fill:#F5978A;}
	.st14{fill:#D7E057;}
	.st15{fill-rule:evenodd;clip-rule:evenodd;fill:#87796F;}
	.st16{fill:#6CA8BF;}
	.st17{fill:#B9C239;}
	.st18{fill:#D34E5C;}
	.st19{fill:#FAE6CA;}
	.st20{fill:#F8E4C8;}
	.st21{fill:#8AC5DC;}
	.st22{fill:#EF6D7A;}
	.st23{fill:#EB6E7A;}
	.st24{fill:#89C4DB;}
	.st25{fill-rule:evenodd;clip-rule:evenodd;fill:#F16C7A;}
	.st26{fill:#F7E3C7;}
	.st27{fill:#F6E2C6;}
	.st28{fill:#ED6E7A;}
	.st29{fill:#8AC3DA;}
	.st30{fill:#D5DC57;}
	.st31{fill-rule:evenodd;clip-rule:evenodd;fill:#D7E057;}
	.st32{fill-rule:evenodd;clip-rule:evenodd;fill:#F8E4C8;}
	.st33{fill:#D4DB56;}
	.st34{fill:#F59689;}
	.st35{fill:#DDC9AC;}
	.st36{fill:#D24E5C;}
	.st37{fill:#6A5C52;}
	.st38{fill:#6CA6BE;}
	.st39{fill:#B8C136;}
	.st40{fill-rule:evenodd;clip-rule:evenodd;fill:#FAE6CA;}
</style>
<g id="Layer_2" class="st0">
	<g class="st1">
		<g>
			<line class="st2" x1="0" y1="4.829" x2="256" y2="4.829"/>
			<line class="st2" x1="0" y1="16.56" x2="256" y2="16.56"/>
			<line class="st2" x1="0" y1="28.29" x2="256" y2="28.29"/>
			<line class="st2" x1="0" y1="40.021" x2="256" y2="40.021"/>
			<line class="st2" x1="0" y1="51.751" x2="256" y2="51.751"/>
			<line class="st2" x1="0" y1="63.482" x2="256" y2="63.482"/>
			<line class="st2" x1="0" y1="75.213" x2="256" y2="75.213"/>
			<line class="st2" x1="0" y1="86.943" x2="256" y2="86.943"/>
			<line class="st2" x1="0" y1="98.674" x2="256" y2="98.674"/>
			<line class="st2" x1="0" y1="110.404" x2="256" y2="110.404"/>
			<line class="st2" x1="0" y1="122.135" x2="256" y2="122.135"/>
			<line class="st2" x1="0" y1="133.865" x2="256" y2="133.865"/>
			<line class="st2" x1="0" y1="145.596" x2="256" y2="145.596"/>
			<line class="st2" x1="0" y1="157.326" x2="256" y2="157.326"/>
			<line class="st2" x1="0" y1="169.057" x2="256" y2="169.057"/>
			<line class="st2" x1="0" y1="180.788" x2="256" y2="180.788"/>
			<line class="st2" x1="0" y1="192.518" x2="256" y2="192.518"/>
			<line class="st2" x1="0" y1="204.249" x2="256" y2="204.249"/>
			<line class="st2" x1="0" y1="215.979" x2="256" y2="215.979"/>
			<line class="st2" x1="0" y1="227.71" x2="256" y2="227.71"/>
			<line class="st2" x1="0" y1="239.44" x2="256" y2="239.44"/>
			<line class="st2" x1="0" y1="251.171" x2="256" y2="251.171"/>
		</g>
		<g>
			<line class="st2" x1="251.171" y1="0" x2="251.171" y2="256"/>
			<line class="st2" x1="239.44" y1="0" x2="239.44" y2="256"/>
			<line class="st2" x1="227.71" y1="0" x2="227.71" y2="256"/>
			<line class="st2" x1="215.979" y1="0" x2="215.979" y2="256"/>
			<line class="st2" x1="204.249" y1="0" x2="204.249" y2="256"/>
			<line class="st2" x1="192.518" y1="0" x2="192.518" y2="256"/>
			<line class="st2" x1="180.788" y1="0" x2="180.788" y2="256"/>
			<line class="st2" x1="169.057" y1="0" x2="169.057" y2="256"/>
			<line class="st2" x1="157.326" y1="0" x2="157.326" y2="256"/>
			<line class="st2" x1="145.596" y1="0" x2="145.596" y2="256"/>
			<line class="st2" x1="133.865" y1="0" x2="133.865" y2="256"/>
			<line class="st2" x1="122.135" y1="0" x2="122.135" y2="256"/>
			<line class="st2" x1="110.404" y1="0" x2="110.404" y2="256"/>
			<line class="st2" x1="98.674" y1="0" x2="98.674" y2="256"/>
			<line class="st2" x1="86.943" y1="0" x2="86.943" y2="256"/>
			<line class="st2" x1="75.212" y1="0" x2="75.212" y2="256"/>
			<line class="st2" x1="63.482" y1="0" x2="63.482" y2="256"/>
			<line class="st2" x1="51.751" y1="0" x2="51.751" y2="256"/>
			<line class="st2" x1="40.021" y1="0" x2="40.021" y2="256"/>
			<line class="st2" x1="28.29" y1="0" x2="28.29" y2="256"/>
			<line class="st2" x1="16.56" y1="0" x2="16.56" y2="256"/>
			<line class="st2" x1="4.829" y1="0" x2="4.829" y2="256"/>
		</g>
	</g>
</g>
<g id="Layer_1">
	<g>
		<path class="st4" d="M204.25,150.5h-114c-3.038,0-5.5-2.462-5.5-5.5l0,0c0-3.038,2.462-5.5,5.5-5.5h114c3.038,0,5.5,2.462,5.5,5.5
			l0,0C209.75,148.038,207.288,150.5,204.25,150.5z"/>
		<path class="st3" d="M204.25,152h-114c-3.859,0-7-3.14-7-7s3.141-7,7-7h114c3.859,0,7,3.14,7,7S208.109,152,204.25,152z
			 M90.25,141c-2.206,0-4,1.794-4,4s1.794,4,4,4h114c2.206,0,4-1.794,4-4s-1.794-4-4-4H90.25z"/>
		<path class="st14" d="M147.25,162.5L147.25,162.5c-3.176,0-5.75-2.574-5.75-5.75v-23.5c0-3.176,2.574-5.75,5.75-5.75l0,0
			c3.176,0,5.75,2.574,5.75,5.75v23.5C153,159.926,150.426,162.5,147.25,162.5z"/>
		<path class="st3" d="M147.25,164c-3.998,0-7.25-3.252-7.25-7.25v-23.5c0-3.998,3.252-7.25,7.25-7.25s7.25,3.252,7.25,7.25v23.5
			C154.5,160.748,151.248,164,147.25,164z M147.25,129c-2.344,0-4.25,1.907-4.25,4.25v23.5c0,2.343,1.906,4.25,4.25,4.25
			c2.344,0,4.25-1.907,4.25-4.25v-23.5C151.5,130.907,149.594,129,147.25,129z"/>
		<path class="st14" d="M52.641,239.5H28.359c-6.688,0-12.109-5.422-12.109-12.109V28.609c0-6.688,5.422-12.109,12.109-12.109
			h24.281c6.688,0,12.109,5.422,12.109,12.109v198.781C64.75,234.078,59.328,239.5,52.641,239.5z"/>
		<path class="st3" d="M52.641,241H28.359c-7.504,0-13.609-6.105-13.609-13.609V28.609C14.75,21.105,20.855,15,28.359,15h24.281
			c7.504,0,13.609,6.105,13.609,13.609v198.781C66.25,234.895,60.144,241,52.641,241z M28.359,18
			c-5.85,0-10.609,4.759-10.609,10.609v198.781c0,5.85,4.76,10.609,10.609,10.609h24.281c5.85,0,10.609-4.759,10.609-10.609V28.609
			C63.25,22.759,58.49,18,52.641,18H28.359z"/>
		<path class="st3" d="M29.788,31.059H16.25c-0.828,0-1.5-0.671-1.5-1.5s0.672-1.5,1.5-1.5h13.538c0.828,0,1.5,0.671,1.5,1.5
			S30.616,31.059,29.788,31.059z"/>
		<path class="st3" d="M40.25,46.126h-24c-0.828,0-1.5-0.671-1.5-1.5c0-0.829,0.672-1.5,1.5-1.5h24c0.828,0,1.5,0.671,1.5,1.5
			C41.75,45.455,41.078,46.126,40.25,46.126z"/>
		<path class="st3" d="M29.788,61.194H16.25c-0.828,0-1.5-0.671-1.5-1.5c0-0.829,0.672-1.5,1.5-1.5h13.538
			c0.828,0,1.5,0.671,1.5,1.5C31.288,60.522,30.616,61.194,29.788,61.194z"/>
		<path class="st3" d="M40.25,76.261h-24c-0.828,0-1.5-0.671-1.5-1.5s0.672-1.5,1.5-1.5h24c0.828,0,1.5,0.671,1.5,1.5
			S41.078,76.261,40.25,76.261z"/>
		<path class="st3" d="M29.788,91.329H16.25c-0.828,0-1.5-0.671-1.5-1.5c0-0.829,0.672-1.5,1.5-1.5h13.538
			c0.828,0,1.5,0.671,1.5,1.5C31.288,90.657,30.616,91.329,29.788,91.329z"/>
		<path class="st3" d="M40.25,106.396h-24c-0.828,0-1.5-0.671-1.5-1.5s0.672-1.5,1.5-1.5h24c0.828,0,1.5,0.671,1.5,1.5
			S41.078,106.396,40.25,106.396z"/>
		<path class="st3" d="M29.788,121.464H16.25c-0.828,0-1.5-0.671-1.5-1.5c0-0.829,0.672-1.5,1.5-1.5h13.538
			c0.828,0,1.5,0.671,1.5,1.5C31.288,120.793,30.616,121.464,29.788,121.464z"/>
		<path class="st3" d="M40.25,136.532h-24c-0.828,0-1.5-0.671-1.5-1.5c0-0.829,0.672-1.5,1.5-1.5h24c0.828,0,1.5,0.671,1.5,1.5
			C41.75,135.86,41.078,136.532,40.25,136.532z"/>
		<path class="st3" d="M29.788,151.599H16.25c-0.828,0-1.5-0.671-1.5-1.5c0-0.829,0.672-1.5,1.5-1.5h13.538
			c0.828,0,1.5,0.671,1.5,1.5C31.288,150.928,30.616,151.599,29.788,151.599z"/>
		<path class="st3" d="M40.25,166.667h-24c-0.828,0-1.5-0.671-1.5-1.5s0.672-1.5,1.5-1.5h24c0.828,0,1.5,0.671,1.5,1.5
			S41.078,166.667,40.25,166.667z"/>
		<path class="st3" d="M29.788,181.734H16.25c-0.828,0-1.5-0.671-1.5-1.5s0.672-1.5,1.5-1.5h13.538c0.828,0,1.5,0.671,1.5,1.5
			S30.616,181.734,29.788,181.734z"/>
		<path class="st3" d="M40.25,196.802h-24c-0.828,0-1.5-0.671-1.5-1.5c0-0.829,0.672-1.5,1.5-1.5h24c0.828,0,1.5,0.671,1.5,1.5
			C41.75,196.13,41.078,196.802,40.25,196.802z"/>
		<path class="st3" d="M29.788,211.87H16.25c-0.828,0-1.5-0.671-1.5-1.5s0.672-1.5,1.5-1.5h13.538c0.828,0,1.5,0.671,1.5,1.5
			S30.616,211.87,29.788,211.87z"/>
		<path class="st3" d="M40.25,226.937h-24c-0.828,0-1.5-0.671-1.5-1.5s0.672-1.5,1.5-1.5h24c0.828,0,1.5,0.671,1.5,1.5
			S41.078,226.937,40.25,226.937z"/>
		<path class="st9" d="M105.813,117.076L80.48,209.11l5.85,30.04l20.39-22.82l38.54-140.04h-26.24c-0.66,0-1.31-0.06-1.93-0.18
			l-7.788,28.292L105.813,117.076z"/>
		<path class="st3" d="M86.33,240.65c-0.133,0-0.267-0.018-0.397-0.054c-0.55-0.151-0.966-0.601-1.075-1.16l-5.85-30.04
			c-0.044-0.227-0.035-0.461,0.026-0.685l25.333-92.034c0.221-0.799,1.044-1.268,1.845-1.048c0.799,0.22,1.268,1.045,1.048,1.844
			L82.02,209.169l5.204,26.729l18.143-20.304L143.291,77.79H119.02c-0.278,0-0.555-0.009-0.829-0.028l-7.442,27.039
			c-0.221,0.799-1.041,1.27-1.845,1.048c-0.799-0.22-1.268-1.046-1.048-1.844l7.788-28.293c0.207-0.755,0.966-1.224,1.731-1.075
			c0.523,0.102,1.077,0.153,1.645,0.153h26.24c0.468,0,0.909,0.219,1.193,0.591c0.283,0.373,0.377,0.856,0.253,1.307l-38.54,140.04
			c-0.062,0.223-0.174,0.429-0.328,0.602l-20.39,22.82C87.16,240.473,86.751,240.65,86.33,240.65z"/>
		<polygon class="st9" points="201.42,175.287 174.17,76.29 145.95,76.29 184.49,216.33 204.88,239.15 210.73,209.11 
			204.951,188.114 		"/>
		<path class="st3" d="M204.88,240.65c-0.421,0-0.83-0.177-1.118-0.501l-20.39-22.82c-0.154-0.172-0.267-0.378-0.328-0.602
			l-38.54-140.04c-0.124-0.451-0.03-0.935,0.253-1.307c0.284-0.372,0.726-0.591,1.193-0.591h28.22c0.675,0,1.267,0.451,1.446,1.102
			l27.25,98.998c0.22,0.798-0.249,1.625-1.048,1.844c-0.801,0.22-1.624-0.249-1.845-1.048L173.027,77.79h-25.108l37.924,137.803
			l18.143,20.305l5.205-26.729l-5.686-20.656c-0.22-0.798,0.249-1.625,1.048-1.844c0.801-0.219,1.624,0.249,1.845,1.048
			l5.779,20.996c0.061,0.223,0.07,0.458,0.026,0.685l-5.851,30.04c-0.109,0.559-0.525,1.009-1.075,1.16
			C205.146,240.632,205.013,240.65,204.88,240.65z"/>
		<path class="st14" d="M226.528,26.677c0,0,3.408,12.659,13.222,13.247c0,0-13.1,4.525-13.321,14.202
			c0,0-2.579-13.572-12.925-14.059C213.504,40.067,225.554,38.241,226.528,26.677z"/>
		<path class="st3" d="M226.428,55.625c-0.713,0-1.335-0.506-1.473-1.217c-0.023-0.124-2.494-12.417-11.521-12.842
			c-0.77-0.037-1.388-0.651-1.428-1.421c-0.04-0.771,0.511-1.445,1.273-1.561c0.441-0.069,10.895-1.817,11.754-12.033
			c0.061-0.725,0.635-1.301,1.359-1.367c0.732-0.059,1.394,0.399,1.584,1.102c0.031,0.116,3.259,11.626,11.863,12.141
			c0.714,0.043,1.297,0.584,1.396,1.292c0.098,0.708-0.318,1.388-0.994,1.623c-0.121,0.042-12.119,4.311-12.312,12.819
			c-0.018,0.767-0.61,1.396-1.375,1.459C226.512,55.623,226.47,55.625,226.428,55.625z M218.686,39.896
			c3.878,1.969,6.231,5.746,7.587,8.876c2.026-4.021,5.941-6.787,8.949-8.427c-4.135-1.842-6.783-5.651-8.334-8.722
			C225.096,35.982,221.617,38.491,218.686,39.896z"/>
		<path class="st14" d="M204.829,43.658c0,0,2.411,8.954,9.352,9.369c0,0-9.266,3.201-9.422,10.045c0,0-1.824-9.6-9.142-9.944
			C195.617,53.128,204.141,51.837,204.829,43.658z"/>
		<path class="st3" d="M204.758,64.572c-0.714,0-1.337-0.507-1.473-1.22c-0.016-0.082-1.703-8.442-7.738-8.725
			c-0.771-0.037-1.388-0.651-1.428-1.421c-0.04-0.771,0.511-1.445,1.273-1.561c0.296-0.047,7.363-1.243,7.941-8.114
			c0.061-0.726,0.636-1.303,1.361-1.368c0.722-0.062,1.392,0.399,1.581,1.101l0,0c0.022,0.079,2.229,7.92,7.995,8.264
			c0.714,0.043,1.299,0.584,1.396,1.293c0.097,0.709-0.32,1.388-0.996,1.622c-0.081,0.028-8.283,2.953-8.413,8.662
			c-0.018,0.767-0.611,1.397-1.377,1.461C204.841,64.571,204.799,64.572,204.758,64.572z M200.239,53.045
			c2.107,1.333,3.523,3.394,4.447,5.279c1.376-2.232,3.515-3.872,5.364-4.972c-2.286-1.269-3.884-3.35-4.941-5.224
			C203.936,50.415,202.095,52.004,200.239,53.045z"/>
		<path class="st14" d="M204.829,17c0,0,2.411,8.954,9.352,9.369c0,0-9.266,3.201-9.422,10.046c0,0-1.824-9.6-9.142-9.944
			C195.617,26.471,204.141,25.179,204.829,17z"/>
		<path class="st3" d="M204.758,37.915c-0.714,0-1.337-0.507-1.473-1.22c-0.016-0.082-1.703-8.441-7.738-8.726
			c-0.771-0.037-1.388-0.651-1.428-1.421c-0.04-0.771,0.511-1.445,1.273-1.56c0.296-0.047,7.363-1.243,7.941-8.114
			c0.061-0.726,0.636-1.303,1.361-1.368c0.722-0.061,1.392,0.399,1.581,1.102l0,0c0.022,0.079,2.229,7.92,7.995,8.265
			c0.714,0.043,1.299,0.584,1.396,1.293c0.097,0.709-0.32,1.388-0.997,1.622c-0.08,0.028-8.282,2.952-8.412,8.662
			c-0.018,0.767-0.611,1.397-1.377,1.461C204.841,37.914,204.799,37.915,204.758,37.915z M200.239,26.387
			c2.106,1.333,3.523,3.395,4.447,5.28c1.376-2.232,3.515-3.872,5.364-4.972c-2.286-1.269-3.884-3.35-4.941-5.224
			C203.936,23.757,202.095,25.346,200.239,26.387z"/>
		<path class="st9" d="M162.75,32.5v7.21h-31V32.5c0-8.56,6.94-15.5,15.5-15.5c4.28,0,8.16,1.74,10.96,4.54
			C161.01,24.34,162.75,28.22,162.75,32.5z"/>
		<path class="st3" d="M162.75,41.21h-31c-0.828,0-1.5-0.671-1.5-1.5V32.5c0-9.374,7.626-17,17-17c4.541,0,8.81,1.769,12.02,4.979
			c3.211,3.211,4.98,7.48,4.98,12.021v7.21C164.25,40.539,163.578,41.21,162.75,41.21z M133.25,38.21h28V32.5
			c0-3.739-1.456-7.255-4.101-9.899c-2.645-2.644-6.16-4.101-9.899-4.101c-7.72,0-14,6.28-14,14V38.21z"/>
		<path class="st8" d="M175.482,76.289h-56.463c-7.446,0-12.45-7.633-9.481-14.461l6.914-15.901
			c1.641-3.775,5.365-6.216,9.481-6.216h42.636c4.116,0,7.84,2.442,9.481,6.216l6.914,15.901
			C187.931,68.656,182.927,76.289,175.482,76.289z"/>
		<path class="st3" d="M175.481,77.789h-56.463c-4.004,0-7.705-1.999-9.9-5.348c-2.195-3.349-2.553-7.539-0.957-11.211l6.914-15.901
			c1.88-4.324,6.141-7.118,10.856-7.118h42.637c4.716,0,8.977,2.794,10.856,7.119l6.914,15.901
			c1.596,3.671,1.238,7.862-0.957,11.211C183.186,75.79,179.485,77.789,175.481,77.789z M125.932,41.211
			c-3.521,0-6.702,2.086-8.104,5.314l-6.914,15.902c-1.192,2.741-0.925,5.87,0.714,8.37c1.639,2.5,4.402,3.993,7.392,3.993h56.463
			c2.989,0,5.753-1.493,7.392-3.993c1.639-2.5,1.906-5.628,0.714-8.37l-6.914-15.901c-1.402-3.228-4.584-5.314-8.104-5.314H125.932z
			"/>
		<path class="st14" d="M148.518,48.082c-5.478-0.7-10.486,3.173-11.186,8.65c-0.7,5.478,3.173,10.486,8.65,11.186
			c5.478,0.7,10.486-3.173,11.186-8.65C157.868,53.79,153.996,48.782,148.518,48.082z"/>
		<path class="st3" d="M147.259,69.499c-0.484,0-0.974-0.031-1.467-0.094c-6.289-0.804-10.752-6.575-9.948-12.864
			c0.804-6.29,6.567-10.751,12.864-9.948c6.289,0.804,10.752,6.575,9.948,12.864C157.915,65.254,152.955,69.499,147.259,69.499z
			 M147.244,49.5c-4.211,0-7.877,3.137-8.424,7.422c-0.595,4.648,2.704,8.913,7.353,9.508c4.643,0.59,8.914-2.704,9.507-7.353
			c0.595-4.648-2.704-8.913-7.353-9.508C147.964,49.523,147.602,49.5,147.244,49.5z"/>
		<path class="st17" d="M63.25,28.61v198.78c0,5.85-4.76,10.61-10.61,10.61h-15c5.85,0,10.61-4.76,10.61-10.61V28.61
			c0-5.85-4.76-10.61-10.61-10.61h15C58.49,18,63.25,22.76,63.25,28.61z"/>
		<path class="st18" d="M183.59,62.43l-6.92-15.9c-1.4-3.23-4.58-5.32-8.1-5.32h-15c3.52,0,6.7,2.09,8.1,5.32l6.92,15.9
			c1.19,2.74,0.92,5.87-0.72,8.37s-4.4,3.99-7.39,3.99h15c2.99,0,5.75-1.49,7.39-3.99S184.78,65.17,183.59,62.43z"/>
	</g>
</g>
</svg>
