<?xml version="1.0" encoding="utf-8"?>
<!-- Generator: Adobe Illustrator 22.0.0, SVG Export Plug-In . SVG Version: 6.00 Build 0)  -->
<svg version="1.1" xmlns="http://www.w3.org/2000/svg" xmlns:xlink="http://www.w3.org/1999/xlink" x="0px" y="0px"
	 viewBox="0 0 256 256" style="enable-background:new 0 0 256 256;" xml:space="preserve">
<style type="text/css">
	.st0{display:none;}
	.st1{display:inline;}
	.st2{fill:none;stroke:#6B1D1D;stroke-width:0.5;stroke-miterlimit:10;}
	.st3{fill:#3A312A;}
	.st4{fill:#87796F;}
	.st5{fill:#D5DE58;}
	.st6{fill:#695B51;}
	.st7{fill:#FCE8CB;}
	.st8{fill:#F16C7A;}
	.st9{fill:#8AC6DD;}
	.st10{fill:#DECAAD;}
	.st11{fill:#D6DF58;}
	.st12{fill-rule:evenodd;clip-rule:evenodd;fill:#FCE8CB;}
	.st13{fill:#F5978A;}
	.st14{fill:#D7E057;}
	.st15{fill-rule:evenodd;clip-rule:evenodd;fill:#87796F;}
	.st16{fill:#6CA8BF;}
	.st17{fill:#B9C239;}
	.st18{fill:#D34E5C;}
	.st19{fill:#FAE6CA;}
	.st20{fill:#F8E4C8;}
	.st21{fill:#8AC5DC;}
	.st22{fill:#EF6D7A;}
	.st23{fill:#EB6E7A;}
	.st24{fill:#89C4DB;}
	.st25{fill-rule:evenodd;clip-rule:evenodd;fill:#F16C7A;}
	.st26{fill:#F7E3C7;}
	.st27{fill:#F6E2C6;}
	.st28{fill:#ED6E7A;}
	.st29{fill:#8AC3DA;}
	.st30{fill:#D5DC57;}
	.st31{fill-rule:evenodd;clip-rule:evenodd;fill:#D7E057;}
	.st32{fill-rule:evenodd;clip-rule:evenodd;fill:#F8E4C8;}
	.st33{fill:#D4DB56;}
	.st34{fill:#F59689;}
	.st35{fill:#DDC9AC;}
	.st36{fill:#D24E5C;}
	.st37{fill:#6A5C52;}
	.st38{fill:#6CA6BE;}
	.st39{fill:#B8C136;}
	.st40{fill-rule:evenodd;clip-rule:evenodd;fill:#FAE6CA;}
</style>
<g id="Layer_2" class="st0">
	<g class="st1">
		<g>
			<line class="st2" x1="0" y1="4.829" x2="256" y2="4.829"/>
			<line class="st2" x1="0" y1="16.56" x2="256" y2="16.56"/>
			<line class="st2" x1="0" y1="28.29" x2="256" y2="28.29"/>
			<line class="st2" x1="0" y1="40.021" x2="256" y2="40.021"/>
			<line class="st2" x1="0" y1="51.751" x2="256" y2="51.751"/>
			<line class="st2" x1="0" y1="63.482" x2="256" y2="63.482"/>
			<line class="st2" x1="0" y1="75.213" x2="256" y2="75.213"/>
			<line class="st2" x1="0" y1="86.943" x2="256" y2="86.943"/>
			<line class="st2" x1="0" y1="98.674" x2="256" y2="98.674"/>
			<line class="st2" x1="0" y1="110.404" x2="256" y2="110.404"/>
			<line class="st2" x1="0" y1="122.135" x2="256" y2="122.135"/>
			<line class="st2" x1="0" y1="133.865" x2="256" y2="133.865"/>
			<line class="st2" x1="0" y1="145.596" x2="256" y2="145.596"/>
			<line class="st2" x1="0" y1="157.326" x2="256" y2="157.326"/>
			<line class="st2" x1="0" y1="169.057" x2="256" y2="169.057"/>
			<line class="st2" x1="0" y1="180.788" x2="256" y2="180.788"/>
			<line class="st2" x1="0" y1="192.518" x2="256" y2="192.518"/>
			<line class="st2" x1="0" y1="204.249" x2="256" y2="204.249"/>
			<line class="st2" x1="0" y1="215.979" x2="256" y2="215.979"/>
			<line class="st2" x1="0" y1="227.71" x2="256" y2="227.71"/>
			<line class="st2" x1="0" y1="239.44" x2="256" y2="239.44"/>
			<line class="st2" x1="0" y1="251.171" x2="256" y2="251.171"/>
		</g>
		<g>
			<line class="st2" x1="251.171" y1="0" x2="251.171" y2="256"/>
			<line class="st2" x1="239.44" y1="0" x2="239.44" y2="256"/>
			<line class="st2" x1="227.71" y1="0" x2="227.71" y2="256"/>
			<line class="st2" x1="215.979" y1="0" x2="215.979" y2="256"/>
			<line class="st2" x1="204.249" y1="0" x2="204.249" y2="256"/>
			<line class="st2" x1="192.518" y1="0" x2="192.518" y2="256"/>
			<line class="st2" x1="180.788" y1="0" x2="180.788" y2="256"/>
			<line class="st2" x1="169.057" y1="0" x2="169.057" y2="256"/>
			<line class="st2" x1="157.326" y1="0" x2="157.326" y2="256"/>
			<line class="st2" x1="145.596" y1="0" x2="145.596" y2="256"/>
			<line class="st2" x1="133.865" y1="0" x2="133.865" y2="256"/>
			<line class="st2" x1="122.135" y1="0" x2="122.135" y2="256"/>
			<line class="st2" x1="110.404" y1="0" x2="110.404" y2="256"/>
			<line class="st2" x1="98.674" y1="0" x2="98.674" y2="256"/>
			<line class="st2" x1="86.943" y1="0" x2="86.943" y2="256"/>
			<line class="st2" x1="75.213" y1="0" x2="75.213" y2="256"/>
			<line class="st2" x1="63.482" y1="0" x2="63.482" y2="256"/>
			<line class="st2" x1="51.751" y1="0" x2="51.751" y2="256"/>
			<line class="st2" x1="40.021" y1="0" x2="40.021" y2="256"/>
			<line class="st2" x1="28.29" y1="0" x2="28.29" y2="256"/>
			<line class="st2" x1="16.56" y1="0" x2="16.56" y2="256"/>
			<line class="st2" x1="4.829" y1="0" x2="4.829" y2="256"/>
		</g>
	</g>
</g>
<g id="Layer_1">
	<g>
		<path class="st14" d="M51.848,26.448c0,0,3.408,12.659,13.222,13.246c0,0-13.1,4.525-13.321,14.202
			c0,0-2.578-13.572-12.925-14.059C38.823,39.838,50.874,38.012,51.848,26.448z"/>
		<path class="st3" d="M51.748,55.396c-0.713,0-1.335-0.506-1.472-1.217c-0.024-0.124-2.495-12.417-11.522-12.842
			c-0.771-0.037-1.388-0.651-1.428-1.421c-0.04-0.771,0.511-1.445,1.273-1.561c0.441-0.069,10.894-1.817,11.754-12.032
			c0.061-0.725,0.634-1.301,1.359-1.367c0.737-0.057,1.393,0.399,1.583,1.101c0.032,0.116,3.259,11.626,11.863,12.14
			c0.714,0.043,1.298,0.584,1.396,1.292c0.098,0.708-0.319,1.388-0.994,1.623c-0.121,0.042-12.118,4.311-12.312,12.819
			c-0.018,0.767-0.61,1.396-1.375,1.459C51.832,55.395,51.789,55.396,51.748,55.396z M44.006,39.667
			c3.878,1.969,6.23,5.746,7.587,8.876c2.026-4.021,5.941-6.787,8.949-8.427c-4.134-1.842-6.783-5.651-8.334-8.722
			C50.415,35.754,46.937,38.262,44.006,39.667z"/>
		<path class="st14" d="M30.149,43.429c0,0,2.411,8.954,9.352,9.369c0,0-9.266,3.201-9.422,10.045c0,0-1.824-9.6-9.142-9.944
			C20.937,52.9,29.46,51.608,30.149,43.429z"/>
		<path class="st3" d="M30.077,64.344c-0.713,0-1.337-0.507-1.472-1.22c-0.016-0.082-1.704-8.441-7.739-8.726
			c-0.77-0.037-1.387-0.651-1.427-1.421c-0.04-0.771,0.511-1.445,1.273-1.561c0.296-0.047,7.364-1.243,7.942-8.113
			c0.061-0.726,0.635-1.303,1.36-1.368c0.729-0.066,1.392,0.4,1.582,1.101l0,0c0.021,0.079,2.227,7.92,7.994,8.264
			c0.715,0.043,1.299,0.584,1.396,1.293c0.098,0.709-0.319,1.388-0.996,1.622c-0.081,0.028-8.282,2.953-8.413,8.662
			c-0.018,0.767-0.611,1.397-1.376,1.461C30.16,64.342,30.119,64.344,30.077,64.344z M25.559,52.816
			c2.107,1.333,3.523,3.395,4.447,5.28c1.376-2.232,3.515-3.872,5.365-4.973c-2.287-1.269-3.884-3.35-4.941-5.224
			C29.256,50.187,27.414,51.775,25.559,52.816z"/>
		<path class="st14" d="M30.149,16.771c0,0,2.411,8.954,9.352,9.37c0,0-9.266,3.201-9.422,10.045c0,0-1.824-9.6-9.142-9.944
			C20.937,26.242,29.46,24.951,30.149,16.771z"/>
		<path class="st3" d="M30.077,37.687c-0.713,0-1.337-0.507-1.472-1.22c-0.016-0.082-1.704-8.442-7.739-8.726
			c-0.771-0.037-1.388-0.651-1.428-1.421c-0.04-0.771,0.511-1.445,1.273-1.56c0.296-0.047,7.364-1.243,7.942-8.114
			c0.061-0.726,0.635-1.303,1.36-1.368c0.729-0.066,1.392,0.4,1.582,1.102l0,0c0.021,0.079,2.227,7.92,7.994,8.265
			c0.714,0.043,1.299,0.584,1.396,1.293c0.098,0.709-0.32,1.388-0.996,1.622c-0.081,0.028-8.282,2.952-8.413,8.662
			c-0.018,0.767-0.611,1.397-1.376,1.461C30.16,37.685,30.119,37.687,30.077,37.687z M25.559,26.159
			c2.107,1.332,3.523,3.394,4.447,5.28c1.376-2.232,3.515-3.872,5.365-4.972c-2.287-1.269-3.884-3.35-4.941-5.224
			C29.256,23.529,27.415,25.118,25.559,26.159z"/>
		<path class="st22" d="M93.937,100.445c-0.011,0-0.021-0.002-0.032-0.002v16.91l37.855,21.856l37.855-21.856V73.641L131.76,51.785
			L93.904,73.641v13.54c0.011,0,0.021-0.002,0.032-0.002V100.445z"/>
		<path class="st3" d="M131.76,140.708c-0.259,0-0.518-0.067-0.75-0.201l-37.855-21.856c-0.464-0.268-0.75-0.763-0.75-1.299v-16.91
			c0-0.829,0.671-1.5,1.5-1.5c0.033,0,0.073,0.001,0.111,0.004c0.792,0.041,1.421,0.696,1.421,1.498c0,0.106-0.011,0.21-0.032,0.311
			v15.731l36.355,20.99l36.355-20.99V74.507l-36.355-20.99l-36.355,20.99v12.455c0.011,0.071,0.016,0.144,0.016,0.218
			c0,0.829-0.655,1.499-1.484,1.499s-1.532-0.67-1.532-1.498v-13.54c0-0.536,0.286-1.031,0.75-1.299l37.855-21.856
			c0.464-0.269,1.036-0.269,1.5,0l37.855,21.856c0.464,0.268,0.75,0.763,0.75,1.299v43.712c0,0.536-0.286,1.031-0.75,1.299
			l-37.855,21.856C132.278,140.642,132.019,140.708,131.76,140.708z"/>
		<polygon class="st22" points="131.874,139.246 131.874,182.958 169.729,204.814 207.585,182.958 207.585,139.246 169.729,117.39 
					"/>
		<path class="st3" d="M169.73,206.314c-0.259,0-0.518-0.067-0.75-0.201l-37.856-21.856c-0.464-0.268-0.75-0.763-0.75-1.299v-43.712
			c0-0.536,0.286-1.031,0.75-1.299l37.856-21.856c0.464-0.269,1.036-0.269,1.5,0l37.855,21.856c0.464,0.268,0.75,0.763,0.75,1.299
			v43.712c0,0.536-0.286,1.031-0.75,1.299l-37.855,21.856C170.248,206.247,169.988,206.314,169.73,206.314z M133.374,182.092
			l36.356,20.99l36.355-20.99v-41.979l-36.355-20.99l-36.356,20.99V182.092z"/>
		<polygon class="st22" points="120.266,189.713 131.967,182.958 131.967,139.246 94.111,117.39 56.255,139.246 56.255,182.958 
			94.111,204.814 108.977,196.231 		"/>
		<path class="st3" d="M94.111,206.314c-0.259,0-0.518-0.067-0.75-0.201l-37.855-21.856c-0.464-0.268-0.75-0.763-0.75-1.299v-43.712
			c0-0.536,0.286-1.031,0.75-1.299l37.855-21.856c0.464-0.269,1.036-0.269,1.5,0l37.855,21.856c0.464,0.268,0.75,0.763,0.75,1.299
			v43.712c0,0.536-0.286,1.031-0.75,1.299l-11.7,6.755c-0.718,0.415-1.634,0.169-2.049-0.549c-0.415-0.717-0.168-1.635,0.549-2.049
			l10.95-6.322v-41.979l-36.355-20.99l-36.355,20.99v41.979l36.355,20.99l14.117-8.15c0.718-0.414,1.635-0.168,2.049,0.549
			c0.415,0.717,0.168,1.635-0.549,2.049l-14.867,8.583C94.629,206.247,94.37,206.314,94.111,206.314z"/>
		<path class="st3" d="M131.76,53.285c-0.829,0-1.5-0.671-1.5-1.5V23.236c0-0.829,0.671-1.5,1.5-1.5s1.5,0.671,1.5,1.5v28.548
			C133.26,52.613,132.588,53.285,131.76,53.285z"/>
		
			<ellipse transform="matrix(0.2508 -0.968 0.968 0.2508 72.0282 148.1956)" class="st11" cx="131.76" cy="27.562" rx="10.333" ry="10.333"/>
		<path class="st3" d="M131.76,39.396c-6.525,0-11.834-5.309-11.834-11.833s5.309-11.833,11.834-11.833
			c6.525,0,11.834,5.309,11.834,11.833S138.285,39.396,131.76,39.396z M131.76,18.729c-4.871,0-8.834,3.963-8.834,8.833
			s3.963,8.833,8.834,8.833c4.871,0,8.834-3.963,8.834-8.833S136.63,18.729,131.76,18.729z"/>
		<path class="st3" d="M94.111,234.721c-0.829,0-1.5-0.671-1.5-1.5v-28.548c0-0.829,0.671-1.5,1.5-1.5c0.829,0,1.5,0.671,1.5,1.5
			v28.548C95.611,234.049,94.939,234.721,94.111,234.721z"/>
		
			<ellipse transform="matrix(0.2298 -0.9732 0.9732 0.2298 -150.2832 267.8995)" class="st11" cx="94.111" cy="228.895" rx="10.333" ry="10.333"/>
		<path class="st3" d="M94.111,240.729c-6.525,0-11.834-5.309-11.834-11.833s5.309-11.834,11.834-11.834
			c6.525,0,11.833,5.309,11.833,11.834S100.636,240.729,94.111,240.729z M94.111,220.061c-4.871,0-8.834,3.963-8.834,8.834
			c0,4.871,3.963,8.833,8.834,8.833c4.871,0,8.833-3.963,8.833-8.833C102.944,224.024,98.981,220.061,94.111,220.061z"/>
		<path class="st3" d="M169.73,234.721c-0.829,0-1.5-0.671-1.5-1.5v-28.548c0-0.829,0.671-1.5,1.5-1.5c0.829,0,1.5,0.671,1.5,1.5
			v28.548C171.23,234.049,170.558,234.721,169.73,234.721z"/>
		
			<ellipse transform="matrix(0.2298 -0.9732 0.9732 0.2298 -92.0384 341.4949)" class="st11" cx="169.729" cy="228.895" rx="10.333" ry="10.333"/>
		<path class="st3" d="M169.73,240.729c-6.525,0-11.834-5.309-11.834-11.833s5.309-11.834,11.834-11.834
			c6.525,0,11.833,5.309,11.833,11.834S176.254,240.729,169.73,240.729z M169.73,220.061c-4.871,0-8.834,3.963-8.834,8.834
			c0,4.871,3.963,8.833,8.834,8.833c4.871,0,8.833-3.963,8.833-8.833C178.562,224.024,174.6,220.061,169.73,220.061z"/>
		<path class="st3" d="M169.613,75.119c-0.384,0-0.768-0.146-1.061-0.439c-0.586-0.586-0.586-1.536,0-2.121l20.187-20.187
			c0.586-0.586,1.535-0.586,2.121,0c0.586,0.585,0.586,1.536,0,2.121L170.673,74.68C170.38,74.973,169.997,75.119,169.613,75.119z"
			/>
		<circle class="st11" cx="186.741" cy="56.491" r="10.333"/>
		<path class="st3" d="M186.741,68.325c-3.161,0-6.133-1.231-8.368-3.466c-4.613-4.614-4.613-12.121,0-16.735
			c4.614-4.614,12.122-4.614,16.735,0c4.614,4.614,4.614,12.121,0,16.735l0,0l0,0C192.873,67.094,189.901,68.325,186.741,68.325z
			 M186.741,47.662c-2.262,0-4.524,0.861-6.247,2.583c-3.444,3.444-3.444,9.048,0,12.493c1.669,1.668,3.887,2.587,6.247,2.587
			c2.359,0,4.578-0.919,6.246-2.587l0,0c3.444-3.444,3.444-9.048,0-12.493C191.265,48.523,189.002,47.662,186.741,47.662z"/>
		<path class="st3" d="M93.98,75.119c-0.384,0-0.768-0.146-1.061-0.439L72.733,54.493c-0.586-0.585-0.586-1.536,0-2.121
			c0.586-0.586,1.535-0.586,2.121,0L95.04,72.559c0.586,0.585,0.586,1.536,0,2.121C94.748,74.973,94.364,75.119,93.98,75.119z"/>
		<circle class="st11" cx="76.852" cy="56.491" r="10.333"/>
		<path class="st3" d="M76.852,68.325c-3.161,0-6.133-1.231-8.368-3.466l0,0c-4.613-4.614-4.613-12.121,0-16.735
			c4.614-4.614,12.122-4.614,16.735,0c4.614,4.614,4.614,12.121,0,16.735C82.984,67.094,80.013,68.325,76.852,68.325z
			 M70.605,62.737c1.668,1.668,3.887,2.587,6.247,2.587c2.359,0,4.578-0.919,6.246-2.587c3.444-3.444,3.444-9.048,0-12.493
			c-3.443-3.443-9.047-3.443-12.493,0C67.162,53.689,67.162,59.293,70.605,62.737L70.605,62.737z"/>
		<path class="st3" d="M56.271,140.785c-0.384,0-0.768-0.146-1.061-0.439l-20.187-20.187c-0.586-0.585-0.586-1.536,0-2.121
			c0.586-0.586,1.535-0.586,2.121,0l20.187,20.187c0.586,0.585,0.586,1.536,0,2.121C57.039,140.638,56.655,140.785,56.271,140.785z"
			/>
		<circle class="st11" cx="39.143" cy="122.156" r="10.333"/>
		<path class="st3" d="M39.143,133.984c-3.03,0-6.061-1.153-8.367-3.46l0,0c-4.613-4.614-4.613-12.121,0-16.735
			c4.613-4.614,12.122-4.614,16.735,0c4.614,4.614,4.614,12.121,0,16.735C45.204,132.831,42.173,133.984,39.143,133.984z
			 M32.896,128.403c3.445,3.444,9.049,3.443,12.493,0c3.444-3.444,3.444-9.048,0-12.493c-3.443-3.444-9.047-3.444-12.493,0
			C29.453,119.354,29.453,124.959,32.896,128.403L32.896,128.403z"/>
		<path class="st3" d="M207.602,140.785c-0.384,0-0.768-0.146-1.061-0.439c-0.586-0.585-0.586-1.535,0-2.121l20.186-20.187
			c0.586-0.586,1.535-0.586,2.121,0c0.586,0.585,0.586,1.535,0,2.121l-20.186,20.187
			C208.37,140.638,207.986,140.785,207.602,140.785z"/>
		<circle class="st11" cx="224.73" cy="122.156" r="10.333"/>
		<path class="st3" d="M224.73,133.984c-3.031,0-6.06-1.153-8.367-3.461c-4.614-4.614-4.614-12.121,0-16.735
			c2.235-2.235,5.206-3.466,8.367-3.466c3.161,0,6.133,1.231,8.368,3.466c4.613,4.614,4.613,12.121,0,16.735l0,0
			C230.791,132.831,227.76,133.984,224.73,133.984z M224.73,113.323c-2.359,0-4.578,0.919-6.246,2.587
			c-3.444,3.444-3.444,9.048,0,12.493c3.444,3.444,9.048,3.444,12.493,0c3.444-3.444,3.444-9.048,0-12.493
			C229.308,114.242,227.089,113.323,224.73,113.323z M232.037,129.463h0.01H232.037z"/>
		<path class="st3" d="M36.084,204.665c-0.384,0-0.768-0.146-1.061-0.439c-0.586-0.585-0.586-1.536,0-2.121l20.187-20.187
			c0.586-0.586,1.535-0.586,2.121,0c0.586,0.585,0.586,1.536,0,2.121l-20.187,20.187C36.852,204.519,36.468,204.665,36.084,204.665z
			"/>
		<circle class="st11" cx="39.143" cy="200.106" r="10.333"/>
		<path class="st3" d="M39.143,211.934c-3.031,0-6.061-1.153-8.368-3.46c-4.614-4.613-4.614-12.121,0-16.735l0,0
			c4.613-4.612,12.122-4.613,16.735,0c2.235,2.235,3.466,5.206,3.466,8.368c0,3.161-1.231,6.132-3.466,8.367
			C45.204,210.78,42.173,211.934,39.143,211.934z M32.896,193.86c-3.444,3.444-3.444,9.049,0,12.493
			c3.445,3.445,9.049,3.444,12.493,0c1.668-1.668,2.587-3.887,2.587-6.246c0-2.359-0.919-4.578-2.587-6.247
			C41.944,190.416,36.34,190.417,32.896,193.86L32.896,193.86z"/>
		<path class="st3" d="M227.789,204.665c-0.384,0-0.768-0.146-1.061-0.439l-20.186-20.187c-0.586-0.585-0.586-1.536,0-2.121
			c0.586-0.586,1.535-0.586,2.121,0l20.186,20.187c0.586,0.585,0.586,1.536,0,2.121
			C228.556,204.519,228.172,204.665,227.789,204.665z"/>
		<circle class="st11" cx="224.73" cy="200.106" r="10.333"/>
		<path class="st3" d="M224.73,211.94c-3.161,0-6.132-1.231-8.367-3.466c-2.235-2.235-3.466-5.206-3.466-8.367
			c0-3.161,1.231-6.133,3.466-8.368c4.613-4.614,12.121-4.614,16.735,0l0,0c4.614,4.614,4.614,12.122,0,16.735
			C230.863,210.709,227.891,211.94,224.73,211.94z M224.73,191.277c-2.262,0-4.524,0.861-6.246,2.583
			c-1.669,1.668-2.587,3.887-2.587,6.247c0,2.359,0.919,4.578,2.587,6.246c1.668,1.669,3.887,2.587,6.246,2.587
			s4.578-0.919,6.247-2.587c3.444-3.444,3.444-9.048,0-12.493C229.254,192.138,226.992,191.277,224.73,191.277z"/>
		<polygon class="st18" points="168.117,74.509 168.117,116.489 160.646,120.809 154.727,117.389 154.617,117.349 154.617,73.639 
			125.757,56.979 131.757,53.519 		"/>
		<polygon class="st18" points="206.087,140.109 206.087,182.089 169.727,203.079 163.736,199.619 192.587,182.959 192.587,139.249 
			163.727,122.589 169.727,119.119 		"/>
	</g>
</g>
</svg>
