<?xml version="1.0" encoding="utf-8"?>
<!-- Generator: Adobe Illustrator 22.0.0, SVG Export Plug-In . SVG Version: 6.00 Build 0)  -->
<svg version="1.1" xmlns="http://www.w3.org/2000/svg" xmlns:xlink="http://www.w3.org/1999/xlink" x="0px" y="0px"
	 viewBox="0 0 256 256" style="enable-background:new 0 0 256 256;" xml:space="preserve">
<style type="text/css">
	.st0{display:none;}
	.st1{display:inline;}
	.st2{fill:none;stroke:#6B1D1D;stroke-width:0.5;stroke-miterlimit:10;}
	.st3{fill:#3A312A;}
	.st4{fill:#87796F;}
	.st5{fill:#D5DE58;}
	.st6{fill:#695B51;}
	.st7{fill:#FCE8CB;}
	.st8{fill:#F16C7A;}
	.st9{fill:#8AC6DD;}
	.st10{fill:#DECAAD;}
	.st11{fill:#D6DF58;}
	.st12{fill-rule:evenodd;clip-rule:evenodd;fill:#FCE8CB;}
	.st13{fill:#F5978A;}
	.st14{fill:#D7E057;}
	.st15{fill-rule:evenodd;clip-rule:evenodd;fill:#87796F;}
	.st16{fill:#6CA8BF;}
	.st17{fill:#B9C239;}
	.st18{fill:#D34E5C;}
	.st19{fill:#FAE6CA;}
	.st20{fill:#F8E4C8;}
	.st21{fill:#8AC5DC;}
	.st22{fill:#EF6D7A;}
	.st23{fill:#EB6E7A;}
	.st24{fill:#89C4DB;}
	.st25{fill-rule:evenodd;clip-rule:evenodd;fill:#F16C7A;}
	.st26{fill:#F7E3C7;}
	.st27{fill:#F6E2C6;}
	.st28{fill:#ED6E7A;}
	.st29{fill:#8AC3DA;}
	.st30{fill:#D5DC57;}
	.st31{fill-rule:evenodd;clip-rule:evenodd;fill:#D7E057;}
	.st32{fill-rule:evenodd;clip-rule:evenodd;fill:#F8E4C8;}
	.st33{fill:#D4DB56;}
	.st34{fill:#F59689;}
	.st35{fill:#DDC9AC;}
	.st36{fill:#D24E5C;}
	.st37{fill:#6A5C52;}
	.st38{fill:#6CA6BE;}
	.st39{fill:#B8C136;}
	.st40{fill-rule:evenodd;clip-rule:evenodd;fill:#FAE6CA;}
</style>
<g id="Layer_2" class="st0">
	<g class="st1">
		<g>
			<line class="st2" x1="0" y1="4.829" x2="256" y2="4.829"/>
			<line class="st2" x1="0" y1="16.56" x2="256" y2="16.56"/>
			<line class="st2" x1="0" y1="28.29" x2="256" y2="28.29"/>
			<line class="st2" x1="0" y1="40.021" x2="256" y2="40.021"/>
			<line class="st2" x1="0" y1="51.751" x2="256" y2="51.751"/>
			<line class="st2" x1="0" y1="63.482" x2="256" y2="63.482"/>
			<line class="st2" x1="0" y1="75.213" x2="256" y2="75.213"/>
			<line class="st2" x1="0" y1="86.943" x2="256" y2="86.943"/>
			<line class="st2" x1="0" y1="98.674" x2="256" y2="98.674"/>
			<line class="st2" x1="0" y1="110.404" x2="256" y2="110.404"/>
			<line class="st2" x1="0" y1="122.135" x2="256" y2="122.135"/>
			<line class="st2" x1="0" y1="133.865" x2="256" y2="133.865"/>
			<line class="st2" x1="0" y1="145.596" x2="256" y2="145.596"/>
			<line class="st2" x1="0" y1="157.326" x2="256" y2="157.326"/>
			<line class="st2" x1="0" y1="169.057" x2="256" y2="169.057"/>
			<line class="st2" x1="0" y1="180.788" x2="256" y2="180.788"/>
			<line class="st2" x1="0" y1="192.518" x2="256" y2="192.518"/>
			<line class="st2" x1="0" y1="204.249" x2="256" y2="204.249"/>
			<line class="st2" x1="0" y1="215.979" x2="256" y2="215.979"/>
			<line class="st2" x1="0" y1="227.71" x2="256" y2="227.71"/>
			<line class="st2" x1="0" y1="239.44" x2="256" y2="239.44"/>
			<line class="st2" x1="0" y1="251.171" x2="256" y2="251.171"/>
		</g>
		<g>
			<line class="st2" x1="251.171" y1="0" x2="251.171" y2="256"/>
			<line class="st2" x1="239.44" y1="0" x2="239.44" y2="256"/>
			<line class="st2" x1="227.71" y1="0" x2="227.71" y2="256"/>
			<line class="st2" x1="215.979" y1="0" x2="215.979" y2="256"/>
			<line class="st2" x1="204.249" y1="0" x2="204.249" y2="256"/>
			<line class="st2" x1="192.518" y1="0" x2="192.518" y2="256"/>
			<line class="st2" x1="180.787" y1="0" x2="180.787" y2="256"/>
			<line class="st2" x1="169.057" y1="0" x2="169.057" y2="256"/>
			<line class="st2" x1="157.326" y1="0" x2="157.326" y2="256"/>
			<line class="st2" x1="145.596" y1="0" x2="145.596" y2="256"/>
			<line class="st2" x1="133.865" y1="0" x2="133.865" y2="256"/>
			<line class="st2" x1="122.135" y1="0" x2="122.135" y2="256"/>
			<line class="st2" x1="110.404" y1="0" x2="110.404" y2="256"/>
			<line class="st2" x1="98.674" y1="0" x2="98.674" y2="256"/>
			<line class="st2" x1="86.943" y1="0" x2="86.943" y2="256"/>
			<line class="st2" x1="75.212" y1="0" x2="75.212" y2="256"/>
			<line class="st2" x1="63.482" y1="0" x2="63.482" y2="256"/>
			<line class="st2" x1="51.751" y1="0" x2="51.751" y2="256"/>
			<line class="st2" x1="40.021" y1="0" x2="40.021" y2="256"/>
			<line class="st2" x1="28.29" y1="0" x2="28.29" y2="256"/>
			<line class="st2" x1="16.56" y1="0" x2="16.56" y2="256"/>
			<line class="st2" x1="4.829" y1="0" x2="4.829" y2="256"/>
		</g>
	</g>
</g>
<g id="Layer_1">
	<g>
		<path class="st14" d="M48.045,26.441c0,0,3.408,12.659,13.222,13.246c0,0-13.1,4.525-13.321,14.202
			c0,0-2.579-13.572-12.925-14.059C35.02,39.83,47.071,38.005,48.045,26.441z"/>
		<path class="st3" d="M47.945,55.389c-0.713,0-1.335-0.506-1.472-1.217c-0.024-0.124-2.495-12.417-11.523-12.842
			c-0.771-0.037-1.388-0.651-1.428-1.421c-0.04-0.771,0.511-1.445,1.273-1.561c0.441-0.069,10.894-1.818,11.754-12.033
			c0.061-0.725,0.634-1.301,1.359-1.367c0.735-0.057,1.393,0.399,1.583,1.101c0.032,0.116,3.259,11.626,11.864,12.141
			c0.714,0.043,1.297,0.584,1.396,1.292c0.098,0.708-0.319,1.388-0.994,1.623c-0.121,0.042-12.118,4.31-12.312,12.819
			c-0.018,0.767-0.61,1.396-1.375,1.459C48.029,55.387,47.986,55.389,47.945,55.389z M40.204,39.659
			c3.878,1.969,6.23,5.746,7.587,8.876c2.026-4.021,5.941-6.787,8.949-8.427c-4.134-1.842-6.783-5.651-8.334-8.722
			C46.612,35.746,43.134,38.254,40.204,39.659z"/>
		<path class="st14" d="M26.346,43.421c0,0,2.411,8.954,9.352,9.369c0,0-9.266,3.201-9.422,10.046c0,0-1.824-9.6-9.142-9.944
			C17.134,52.892,25.657,51.601,26.346,43.421z"/>
		<path class="st3" d="M26.274,64.336c-0.713,0-1.337-0.507-1.472-1.22c-0.016-0.082-1.704-8.442-7.739-8.726
			c-0.77-0.037-1.388-0.651-1.428-1.421c-0.04-0.771,0.511-1.445,1.273-1.561c0.296-0.047,7.364-1.243,7.942-8.114
			c0.061-0.726,0.635-1.303,1.36-1.368c0.729-0.067,1.392,0.399,1.582,1.102l0,0c0.021,0.079,2.228,7.92,7.994,8.265
			c0.714,0.043,1.299,0.584,1.396,1.293c0.098,0.709-0.32,1.388-0.996,1.622c-0.081,0.028-8.282,2.952-8.413,8.662
			c-0.018,0.767-0.611,1.397-1.376,1.461C26.357,64.335,26.316,64.336,26.274,64.336z M21.756,52.809
			c2.107,1.333,3.523,3.394,4.447,5.28c1.376-2.232,3.515-3.872,5.365-4.972c-2.287-1.27-3.884-3.35-4.941-5.224
			C25.453,50.179,23.612,51.768,21.756,52.809z"/>
		<path class="st14" d="M26.346,16.764c0,0,2.411,8.954,9.352,9.369c0,0-9.266,3.201-9.422,10.045c0,0-1.824-9.6-9.142-9.944
			C17.134,26.235,25.657,24.943,26.346,16.764z"/>
		<path class="st3" d="M26.274,37.679c-0.713,0-1.337-0.507-1.472-1.22c-0.016-0.082-1.704-8.441-7.739-8.726
			c-0.77-0.037-1.387-0.651-1.427-1.421c-0.04-0.771,0.511-1.445,1.273-1.561c0.296-0.047,7.364-1.243,7.942-8.113
			c0.061-0.726,0.635-1.303,1.36-1.368c0.73-0.064,1.393,0.401,1.583,1.103c0.042,0.15,2.254,7.92,7.994,8.263
			c0.714,0.043,1.299,0.584,1.396,1.293c0.098,0.709-0.32,1.388-0.996,1.622c-0.081,0.028-8.282,2.952-8.413,8.662
			c-0.018,0.767-0.611,1.398-1.376,1.461C26.357,37.677,26.316,37.679,26.274,37.679z M21.756,26.151
			c2.107,1.333,3.523,3.394,4.447,5.279c1.376-2.233,3.515-3.872,5.365-4.972c-2.287-1.269-3.884-3.35-4.941-5.224
			C25.453,23.521,23.612,25.11,21.756,26.151z"/>
		<path class="st9" d="M27.5,168.049v71.59h201v-133.55l-98.8-83.8c-0.98-0.83-2.42-0.83-3.4,0l-98.8,83.8v47.14V168.049z"/>
		<path class="st3" d="M228.5,241.139h-201c-0.829,0-1.5-0.671-1.5-1.5v-71.59c0-0.829,0.671-1.5,1.5-1.5c0.829,0,1.5,0.671,1.5,1.5
			v70.09h198V106.783l-98.27-83.351c-0.422-0.358-1.037-0.357-1.461,0L29,106.783v46.445c0,0.829-0.671,1.5-1.5,1.5
			c-0.829,0-1.5-0.671-1.5-1.5v-47.14c0-0.44,0.194-0.859,0.53-1.144l98.8-83.8c1.547-1.31,3.793-1.311,5.34-0.001l98.801,83.8
			c0.336,0.285,0.529,0.704,0.529,1.144v133.55C230,240.467,229.328,241.139,228.5,241.139z"/>
		<path class="st8" d="M73.428,59.954l-60.487,51.305c-2.948,2.501-3.31,6.919-0.809,9.866c2.501,2.949,6.919,3.31,9.867,0.81
			L128,32.023l106.001,89.911c1.316,1.116,2.925,1.662,4.525,1.662c1.984,0,3.956-0.84,5.341-2.472
			c2.501-2.947,2.139-7.365-0.809-9.866L134.225,18.945c-3.607-3.054-8.842-3.056-12.453,0.004l-38.34,32.52L73.428,59.954z"/>
		<path class="st3" d="M17.483,125.097c-0.235,0-0.471-0.009-0.707-0.029c-2.263-0.185-4.319-1.241-5.788-2.973
			c-1.469-1.73-2.175-3.93-1.99-6.193c0.186-2.263,1.241-4.318,2.973-5.787L72.458,58.81c0.632-0.537,1.579-0.458,2.114,0.174
			c0.536,0.632,0.458,1.578-0.174,2.114l-60.487,51.305c-1.12,0.95-1.803,2.28-1.923,3.745c-0.12,1.464,0.337,2.887,1.287,4.007
			c0.951,1.121,2.281,1.804,3.745,1.924c1.469,0.117,2.888-0.337,4.008-1.288L127.03,30.879c0.56-0.475,1.381-0.475,1.94,0
			l106.001,89.911c0.993,0.842,2.256,1.306,3.555,1.306c1.62,0,3.15-0.708,4.198-1.942c0.95-1.12,1.407-2.543,1.287-4.007
			c-0.12-1.464-0.804-2.795-1.924-3.745L133.254,20.089c-3.044-2.578-7.465-2.577-10.512,0.004l-38.34,32.52
			c-0.63,0.536-1.578,0.459-2.114-0.174c-0.536-0.632-0.458-1.578,0.174-2.114l38.34-32.52c4.17-3.535,10.223-3.536,14.393-0.004
			l108.835,92.314c1.73,1.469,2.786,3.524,2.972,5.787c0.186,2.264-0.521,4.463-1.989,6.194c-1.619,1.907-3.982,3.001-6.485,3.001
			c-2.009,0-3.961-0.717-5.495-2.018L128,33.99L22.969,123.078C21.419,124.393,19.494,125.097,17.483,125.097z"/>
		<rect x="80.832" y="106.64" class="st4" width="93.103" height="106.564"/>
		<path class="st3" d="M173.935,214.704H80.831c-0.829,0-1.5-0.671-1.5-1.5V106.64c0-0.829,0.671-1.5,1.5-1.5h93.104
			c0.828,0,1.5,0.671,1.5,1.5v106.564C175.435,214.033,174.764,214.704,173.935,214.704z M82.331,211.704h90.104V108.14H82.331
			V211.704z"/>
		<path class="st7" d="M183.11,217.116v22.536H72.89v-22.536c0-13.736,11.133-24.869,24.869-24.869h16.44v-10.734h0.279
			c4.526,3.188,9.145,5.065,13.522,5.065c4.563,0,9.265-1.859,13.81-5.009v10.678h16.431
			C171.976,192.247,183.11,203.38,183.11,217.116z"/>
		<path class="st3" d="M183.109,241.152H72.89c-0.829,0-1.5-0.671-1.5-1.5v-22.536c0-14.54,11.829-26.369,26.369-26.369h14.94
			v-9.234c0-0.829,0.671-1.5,1.5-1.5h0.278c0.309,0,0.611,0.096,0.864,0.273c4.515,3.18,8.773,4.792,12.659,4.792
			c4.058,0,8.417-1.596,12.955-4.742c0.459-0.319,1.056-0.355,1.55-0.097c0.495,0.259,0.805,0.771,0.805,1.329v9.179h14.931
			c14.54,0,26.369,11.829,26.369,26.369v22.536C184.609,240.481,183.937,241.152,183.109,241.152z M74.39,238.152h107.22v-21.036
			c0-12.886-10.483-23.369-23.369-23.369H141.81c-0.828,0-1.5-0.671-1.5-1.5v-7.933c-4.229,2.5-8.359,3.764-12.31,3.764
			c-3.888,0-8.018-1.332-12.301-3.963v8.132c0,0.829-0.671,1.5-1.5,1.5h-16.44c-12.886,0-23.369,10.483-23.369,23.369V238.152z"/>
		<path class="st8" d="M183.11,217.109v22.546H72.89v-22.546c0-13.736,11.133-24.869,24.869-24.869h4.935l-0.102,0.075l17.09,22.667
			l8.819-6.645l8.82,6.645l17.091-22.667l-0.102-0.075h3.931C171.976,192.24,183.11,203.373,183.11,217.109z"/>
		<path class="st3" d="M183.11,241.155H72.89c-0.829,0-1.5-0.671-1.5-1.5v-22.546c0-14.54,11.829-26.369,26.369-26.369h4.935
			c0.65,0,1.226,0.419,1.426,1.036c0.013,0.039,0.024,0.078,0.033,0.118l15.824,20.987l7.622-5.743c0.535-0.402,1.272-0.402,1.805,0
			l7.622,5.743l15.823-20.986c0.01-0.039,0.021-0.078,0.033-0.117c0.2-0.619,0.776-1.038,1.427-1.038h3.932
			c14.54,0,26.369,11.829,26.369,26.369v22.546C184.61,240.483,183.938,241.155,183.11,241.155z M74.39,238.155h107.22v-21.046
			c0-12.886-10.483-23.369-23.369-23.369h-3.025l-16.697,22.144c-0.497,0.662-1.438,0.793-2.1,0.295l-7.917-5.965l-7.917,5.965
			c-0.661,0.499-1.601,0.366-2.1-0.295l-16.697-22.144h-4.029c-12.886,0-23.369,10.483-23.369,23.369V238.155z"/>
		<path class="st12" d="M95.082,130.598c0,5.404-4.381,9.785-9.785,9.785c-5.405,0-9.785-4.381-9.785-9.785
			c0-5.405,4.381-9.786,9.785-9.786C90.701,120.812,95.082,125.193,95.082,130.598z"/>
		<path class="st3" d="M85.296,141.883c-6.223,0-11.286-5.062-11.286-11.286c0-6.223,5.062-11.285,11.286-11.285
			c6.223,0,11.285,5.062,11.285,11.285C96.581,136.821,91.519,141.883,85.296,141.883z M85.296,122.312
			c-4.569,0-8.286,3.717-8.286,8.285c0,4.569,3.717,8.286,8.286,8.286c4.568,0,8.285-3.717,8.285-8.286
			C93.581,126.029,89.865,122.312,85.296,122.312z"/>
		<path class="st12" d="M180.492,130.598c0,5.404-4.381,9.785-9.786,9.785c-5.404,0-9.785-4.381-9.785-9.785
			c0-5.405,4.381-9.786,9.785-9.786C176.111,120.812,180.492,125.193,180.492,130.598z"/>
		<path class="st3" d="M170.706,141.883c-6.223,0-11.285-5.062-11.285-11.286c0-6.223,5.062-11.285,11.285-11.285
			c6.224,0,11.286,5.062,11.286,11.285C181.992,136.821,176.93,141.883,170.706,141.883z M170.706,122.312
			c-4.568,0-8.285,3.717-8.285,8.285c0,4.569,3.717,8.286,8.285,8.286c4.569,0,8.286-3.717,8.286-8.286
			C178.992,126.029,175.275,122.312,170.706,122.312z"/>
		<path class="st7" d="M171.381,125.848c0,23.958-23.074,60.732-43.38,60.732c-19.383,0-43.38-36.774-43.38-60.732
			c0-23.958,19.422-43.38,43.38-43.38C151.959,82.468,171.381,101.89,171.381,125.848z"/>
		<path class="st3" d="M128.001,188.08c-9.374,0-20.661-8.235-30.192-22.029c-9.059-13.111-14.687-28.516-14.687-40.203
			c0-24.747,20.133-44.88,44.879-44.88c24.747,0,44.88,20.133,44.88,44.88c0,11.819-5.493,27.221-14.336,40.195
			C149.001,180.047,137.868,188.08,128.001,188.08z M128.001,83.968c-23.092,0-41.879,18.787-41.879,41.88
			c0,11.11,5.424,25.862,14.155,38.497c8.971,12.983,19.335,20.734,27.724,20.734c8.728,0,19.221-7.748,28.065-20.727
			c8.521-12.503,13.814-27.257,13.814-38.505C169.881,102.755,151.094,83.968,128.001,83.968z"/>
		<path class="st3" d="M116.92,125.358c0,2.338-1.896,4.234-4.234,4.234s-4.234-1.896-4.234-4.234c0-2.338,1.896-4.234,4.234-4.234
			S116.92,123.02,116.92,125.358z"/>
		<path class="st3" d="M147.551,125.358c0,2.338-1.895,4.234-4.234,4.234c-2.339,0-4.234-1.896-4.234-4.234
			c0-2.338,1.895-4.234,4.234-4.234C145.655,121.124,147.551,123.02,147.551,125.358z"/>
		<path class="st13" d="M111.517,137.946c0,3.011-3.266,5.453-7.294,5.453c-4.028,0-7.294-2.441-7.294-5.453
			c0-3.011,3.266-5.452,7.294-5.452C108.252,132.493,111.517,134.935,111.517,137.946z"/>
		<path class="st13" d="M159.073,137.946c0,3.011-3.266,5.453-7.294,5.453c-4.028,0-7.294-2.441-7.294-5.453
			c0-3.011,3.266-5.452,7.294-5.452C155.807,132.493,159.073,134.935,159.073,137.946z"/>
		
			<rect x="110.022" y="186.115" transform="matrix(0.7986 -0.6019 0.6019 0.7986 -97.2819 109.8956)" class="st4" width="11.09" height="28.387"/>
		<path class="st3" d="M119.683,216.48c-0.455,0-0.904-0.206-1.199-0.597l-17.085-22.67c-0.498-0.662-0.367-1.602,0.295-2.101
			l8.856-6.674c0.317-0.24,0.718-0.342,1.111-0.288c0.394,0.055,0.75,0.265,0.989,0.582l17.086,22.67
			c0.239,0.318,0.343,0.718,0.287,1.111c-0.056,0.394-0.265,0.75-0.583,0.989l-8.856,6.674
			C120.314,216.382,119.997,216.48,119.683,216.48z M104.697,192.605l15.279,20.275l6.461-4.869l-15.28-20.275L104.697,192.605z"/>
		
			<rect x="135.892" y="186.115" transform="matrix(-0.7986 -0.6019 0.6019 -0.7986 133.828 445.3997)" class="st4" width="11.09" height="28.387"/>
		<path class="st3" d="M137.321,216.48c-0.314,0-0.632-0.098-0.901-0.302l-8.857-6.674c-0.318-0.239-0.527-0.595-0.583-0.989
			c-0.055-0.394,0.048-0.793,0.288-1.111l17.084-22.67c0.499-0.662,1.441-0.795,2.101-0.295l8.857,6.674
			c0.318,0.239,0.527,0.595,0.583,0.989c0.056,0.394-0.048,0.793-0.287,1.111l-17.085,22.67
			C138.226,216.274,137.776,216.48,137.321,216.48z M130.566,208.011l6.461,4.869l15.279-20.275l-6.461-4.869L130.566,208.011z"/>
		<path class="st3" d="M93.535,241.155c-0.829,0-1.5-0.671-1.5-1.5v-17.812c0-0.829,0.671-1.5,1.5-1.5c0.829,0,1.5,0.671,1.5,1.5
			v17.812C95.035,240.483,94.364,241.155,93.535,241.155z"/>
		<path class="st3" d="M163.469,241.155c-0.828,0-1.5-0.671-1.5-1.5v-17.812c0-0.829,0.672-1.5,1.5-1.5c0.828,0,1.5,0.671,1.5,1.5
			v17.812C164.969,240.483,164.297,241.155,163.469,241.155z"/>
		<path class="st3" d="M128,162.535c-6.226,0-10.714-2.798-13.341-8.316c-0.356-0.748-0.038-1.643,0.71-1.999
			c0.748-0.355,1.643-0.038,1.999,0.71c2.116,4.444,5.594,6.605,10.632,6.605c6.447,0,9.741-4.243,10.582-6.487
			c0.29-0.775,1.152-1.171,1.931-0.878c0.775,0.291,1.169,1.155,0.878,1.931C139.869,158.163,135.029,162.535,128,162.535z"/>
		<path class="st4" d="M177.37,109.949c0,4.444-0.578,8.753-1.671,12.854c-11.111-5.357-21.68-11.933-31.472-19.367
			c-2.872-2.177-5.7-4.445-8.401-6.847c-3.315-2.909-6.45-6.043-9.277-9.44c-6.151-7.407-10.668-15.917-14.489-24.778
			c4.824-1.563,9.973-2.403,15.321-2.403c14.299,0,27.199,6.007,36.314,15.637C172.176,84.556,177.37,96.643,177.37,109.949z"/>
		<path class="st3" d="M175.699,124.303c-0.223,0-0.445-0.05-0.651-0.149c-10.931-5.27-21.605-11.838-31.728-19.523
			c-3.235-2.453-6.014-4.717-8.491-6.921c-3.543-3.109-6.72-6.342-9.433-9.601c-5.495-6.617-10.17-14.606-14.714-25.144
			c-0.167-0.388-0.163-0.828,0.011-1.212c0.174-0.385,0.502-0.678,0.904-0.808c5.072-1.643,10.382-2.476,15.783-2.476
			c14.288,0,27.572,5.72,37.403,16.105c9.084,9.586,14.087,22.15,14.087,35.376c0,4.499-0.579,8.953-1.722,13.24
			c-0.115,0.432-0.417,0.79-0.823,0.977C176.127,124.257,175.913,124.303,175.699,124.303z M114.109,63.313
			c4.215,9.511,8.556,16.811,13.594,22.876c2.612,3.138,5.679,6.257,9.112,9.271c2.426,2.158,5.145,4.373,8.318,6.779
			c9.449,7.174,19.383,13.358,29.553,18.398c0.786-3.483,1.184-7.07,1.184-10.689c0-12.455-4.711-24.286-13.265-33.313
			c-9.26-9.782-21.77-15.168-35.225-15.168C122.855,61.467,118.398,62.088,114.109,63.313z"/>
		<path class="st4" d="M163.694,75.604c-8.6,7.841-17.958,14.778-27.868,20.984c-17.57,11.011-36.838,19.702-56.557,26.937
			c-1.22-4.318-1.87-8.871-1.87-13.577c0-22.258,14.553-41.119,34.661-47.578c4.824-1.563,9.973-2.403,15.321-2.403
			C141.68,59.967,154.579,65.975,163.694,75.604z"/>
		<path class="st3" d="M79.269,125.025c-0.235,0-0.469-0.055-0.682-0.164c-0.372-0.19-0.648-0.526-0.761-0.928
			c-1.278-4.526-1.926-9.231-1.926-13.984c0-22.453,14.348-42.147,35.702-49.007c5.068-1.642,10.378-2.475,15.779-2.475
			c14.288,0,27.572,5.72,37.403,16.105c0.277,0.292,0.425,0.684,0.41,1.086c-0.015,0.402-0.19,0.782-0.488,1.053
			c-8.275,7.545-17.724,14.66-28.083,21.147c-16.109,10.096-34.7,18.952-56.837,27.074
			C79.619,124.995,79.443,125.025,79.269,125.025z M127.38,61.467c-5.087,0-10.086,0.784-14.858,2.33
			c-20.112,6.46-33.623,25.006-33.623,46.151c0,3.93,0.47,7.824,1.398,11.598c21.259-7.893,39.176-16.48,54.731-26.229
			c9.73-6.093,18.638-12.743,26.503-19.782C152.391,66.452,140.323,61.467,127.38,61.467z"/>
		
			<ellipse transform="matrix(0.9274 -0.3742 0.3742 0.9274 -5.2895 79.6415)" class="st7" cx="202.473" cy="53.444" rx="37.098" ry="37.099"/>
		<path class="st3" d="M202.474,92.043c-21.283,0-38.599-17.315-38.599-38.599c0-21.283,17.315-38.599,38.599-38.599
			s38.599,17.315,38.599,38.599C241.072,74.727,223.757,92.043,202.474,92.043z M202.474,17.845
			c-19.629,0-35.599,15.97-35.599,35.599c0,19.629,15.97,35.599,35.599,35.599s35.599-15.97,35.599-35.599
			C238.072,33.815,222.102,17.845,202.474,17.845z"/>
		<polygon class="st8" points="229.436,70.057 202.473,74.486 175.51,70.057 175.51,36.402 202.473,40.831 229.436,36.402 		"/>
		<path class="st3" d="M202.474,75.986c-0.081,0-0.163-0.007-0.243-0.02l-26.963-4.429c-0.725-0.119-1.257-0.746-1.257-1.48V36.402
			c0-0.44,0.193-0.858,0.529-1.144c0.335-0.285,0.777-0.41,1.214-0.336l26.72,4.388l26.72-4.388
			c0.438-0.071,0.879,0.051,1.214,0.336c0.336,0.285,0.529,0.703,0.529,1.144v33.655c0,0.734-0.532,1.361-1.257,1.48l-26.963,4.429
			C202.637,75.979,202.555,75.986,202.474,75.986z M177.011,68.783l25.463,4.183l25.463-4.183V38.169l-25.22,4.142
			c-0.16,0.026-0.326,0.026-0.486,0l-25.22-4.142V68.783z M229.436,70.057h0.01H229.436z"/>
		<path class="st3" d="M202.474,75.986c-0.828,0-1.5-0.671-1.5-1.5V40.831c0-0.829,0.672-1.5,1.5-1.5c0.828,0,1.5,0.671,1.5,1.5
			v33.655C203.974,75.314,203.302,75.986,202.474,75.986z"/>
		<path class="st16" d="M227,117.967v120.17h-15V135.33c0-11.014-4.842-21.471-13.24-28.596l-18.03-15.297
			c-2.03-0.36-4.01-0.88-5.91-1.54c-2.37-5.61-5.75-10.8-10.04-15.32c-5.4-5.71-11.84-10.01-18.92-12.71l-25.36-21.52l7.5-6.36
			l38.08,32.3c4.58,12.94,15.86,22.71,29.65,25.15L227,117.967z"/>
	</g>
</g>
</svg>
