<?xml version="1.0" encoding="utf-8"?>
<!-- Generator: Adobe Illustrator 22.0.0, SVG Export Plug-In . SVG Version: 6.00 Build 0)  -->
<svg version="1.1" xmlns="http://www.w3.org/2000/svg" xmlns:xlink="http://www.w3.org/1999/xlink" x="0px" y="0px"
	 viewBox="0 0 256 256" style="enable-background:new 0 0 256 256;" xml:space="preserve">
<style type="text/css">
	.st0{display:none;}
	.st1{display:inline;}
	.st2{fill:none;stroke:#6B1D1D;stroke-width:0.5;stroke-miterlimit:10;}
	.st3{fill:#3A312A;}
	.st4{fill:#87796F;}
	.st5{fill:#D5DE58;}
	.st6{fill:#695B51;}
	.st7{fill:#FCE8CB;}
	.st8{fill:#F16C7A;}
	.st9{fill:#8AC6DD;}
	.st10{fill:#DECAAD;}
	.st11{fill:#D6DF58;}
	.st12{fill-rule:evenodd;clip-rule:evenodd;fill:#FCE8CB;}
	.st13{fill:#F5978A;}
	.st14{fill:#D7E057;}
	.st15{fill-rule:evenodd;clip-rule:evenodd;fill:#87796F;}
	.st16{fill:#6CA8BF;}
	.st17{fill:#B9C239;}
	.st18{fill:#D34E5C;}
	.st19{fill:#FAE6CA;}
	.st20{fill:#F8E4C8;}
	.st21{fill:#8AC5DC;}
	.st22{fill:#EF6D7A;}
	.st23{fill:#EB6E7A;}
	.st24{fill:#89C4DB;}
	.st25{fill-rule:evenodd;clip-rule:evenodd;fill:#F16C7A;}
	.st26{fill:#F7E3C7;}
	.st27{fill:#F6E2C6;}
	.st28{fill:#ED6E7A;}
	.st29{fill:#8AC3DA;}
	.st30{fill:#D5DC57;}
	.st31{fill-rule:evenodd;clip-rule:evenodd;fill:#D7E057;}
	.st32{fill-rule:evenodd;clip-rule:evenodd;fill:#F8E4C8;}
	.st33{fill:#D4DB56;}
	.st34{fill:#F59689;}
	.st35{fill:#DDC9AC;}
	.st36{fill:#D24E5C;}
	.st37{fill:#6A5C52;}
	.st38{fill:#6CA6BE;}
	.st39{fill:#B8C136;}
	.st40{fill-rule:evenodd;clip-rule:evenodd;fill:#FAE6CA;}
</style>
<g id="Layer_2" class="st0">
	<g class="st1">
		<g>
			<line class="st2" x1="0" y1="4.829" x2="256" y2="4.829"/>
			<line class="st2" x1="0" y1="16.56" x2="256" y2="16.56"/>
			<line class="st2" x1="0" y1="28.29" x2="256" y2="28.29"/>
			<line class="st2" x1="0" y1="40.021" x2="256" y2="40.021"/>
			<line class="st2" x1="0" y1="51.751" x2="256" y2="51.751"/>
			<line class="st2" x1="0" y1="63.482" x2="256" y2="63.482"/>
			<line class="st2" x1="0" y1="75.213" x2="256" y2="75.213"/>
			<line class="st2" x1="0" y1="86.943" x2="256" y2="86.943"/>
			<line class="st2" x1="0" y1="98.674" x2="256" y2="98.674"/>
			<line class="st2" x1="0" y1="110.404" x2="256" y2="110.404"/>
			<line class="st2" x1="0" y1="122.135" x2="256" y2="122.135"/>
			<line class="st2" x1="0" y1="133.865" x2="256" y2="133.865"/>
			<line class="st2" x1="0" y1="145.596" x2="256" y2="145.596"/>
			<line class="st2" x1="0" y1="157.326" x2="256" y2="157.326"/>
			<line class="st2" x1="0" y1="169.057" x2="256" y2="169.057"/>
			<line class="st2" x1="0" y1="180.788" x2="256" y2="180.788"/>
			<line class="st2" x1="0" y1="192.518" x2="256" y2="192.518"/>
			<line class="st2" x1="0" y1="204.249" x2="256" y2="204.249"/>
			<line class="st2" x1="0" y1="215.979" x2="256" y2="215.979"/>
			<line class="st2" x1="0" y1="227.71" x2="256" y2="227.71"/>
			<line class="st2" x1="0" y1="239.44" x2="256" y2="239.44"/>
			<line class="st2" x1="0" y1="251.171" x2="256" y2="251.171"/>
		</g>
		<g>
			<line class="st2" x1="251.171" y1="0" x2="251.171" y2="256"/>
			<line class="st2" x1="239.44" y1="0" x2="239.44" y2="256"/>
			<line class="st2" x1="227.71" y1="0" x2="227.71" y2="256"/>
			<line class="st2" x1="215.979" y1="0" x2="215.979" y2="256"/>
			<line class="st2" x1="204.249" y1="0" x2="204.249" y2="256"/>
			<line class="st2" x1="192.518" y1="0" x2="192.518" y2="256"/>
			<line class="st2" x1="180.788" y1="0" x2="180.788" y2="256"/>
			<line class="st2" x1="169.057" y1="0" x2="169.057" y2="256"/>
			<line class="st2" x1="157.326" y1="0" x2="157.326" y2="256"/>
			<line class="st2" x1="145.596" y1="0" x2="145.596" y2="256"/>
			<line class="st2" x1="133.865" y1="0" x2="133.865" y2="256"/>
			<line class="st2" x1="122.135" y1="0" x2="122.135" y2="256"/>
			<line class="st2" x1="110.404" y1="0" x2="110.404" y2="256"/>
			<line class="st2" x1="98.674" y1="0" x2="98.674" y2="256"/>
			<line class="st2" x1="86.943" y1="0" x2="86.943" y2="256"/>
			<line class="st2" x1="75.213" y1="0" x2="75.213" y2="256"/>
			<line class="st2" x1="63.482" y1="0" x2="63.482" y2="256"/>
			<line class="st2" x1="51.751" y1="0" x2="51.751" y2="256"/>
			<line class="st2" x1="40.021" y1="0" x2="40.021" y2="256"/>
			<line class="st2" x1="28.29" y1="0" x2="28.29" y2="256"/>
			<line class="st2" x1="16.56" y1="0" x2="16.56" y2="256"/>
			<line class="st2" x1="4.829" y1="0" x2="4.829" y2="256"/>
		</g>
	</g>
</g>
<g id="Layer_1">
	<g>
		<path class="st7" d="M91.154,240.037v-38.495h-16.52c-10.685,0-19.348-8.662-19.348-19.348v-27.115
			c-0.419-0.419-0.658-0.658-1.077-1.076H24.102c-5.959,0-9.684-6.451-6.704-11.612l32.234-55.831
			c0.282-0.489,0.506-1.01,0.673-1.55c12.283-39.702,49.424-68.483,93.241-68.142c52.364,0.408,95.274,43.04,96.004,95.4
			c0.489,35.045-17.655,65.884-45.155,83.258v44.512H91.154z"/>
		<path class="st3" d="M194.395,241.537c-0.829,0-1.5-0.672-1.5-1.5v-44.512c0-0.515,0.264-0.993,0.699-1.269
			c28.304-17.882,44.923-48.524,44.456-81.97c-0.717-51.387-43.117-93.52-94.516-93.92c-20.895-0.13-40.811,6.323-57.539,18.758
			c-16.168,12.02-28.334,29.182-34.257,48.327c-0.202,0.653-0.474,1.278-0.806,1.855l-32.235,55.833
			c-1.128,1.954-1.128,4.287,0,6.241c1.128,1.954,3.149,3.121,5.405,3.121h30.107c0.397,0,0.778,0.157,1.06,0.439l1.079,1.078
			c0.281,0.281,0.438,0.662,0.438,1.06v27.115c0,9.841,8.006,17.848,17.848,17.848h16.521c0.829,0,1.5,0.672,1.5,1.5v38.495
			c0,0.828-0.671,1.5-1.5,1.5c-0.829,0-1.5-0.672-1.5-1.5v-36.995H74.634c-11.496,0-20.848-9.353-20.848-20.848V155.7l-0.198-0.197
			H24.102c-3.341,0-6.333-1.727-8.003-4.621c-1.67-2.893-1.67-6.348,0-9.241L48.333,85.81c0.221-0.384,0.402-0.803,0.539-1.244
			c6.11-19.749,18.658-37.452,35.333-49.848c17.256-12.827,37.771-19.475,59.352-19.351c53.018,0.413,96.753,43.873,97.493,96.879
			c0.478,34.221-16.386,65.597-45.155,84.102v43.689C195.895,240.865,195.224,241.537,194.395,241.537z"/>
		<path class="st14" d="M47.866,26.67c0,0,3.408,12.659,13.222,13.246c0,0-13.1,4.525-13.321,14.202c0,0-2.578-13.572-12.925-14.059
			C34.841,40.06,46.892,38.234,47.866,26.67z"/>
		<path class="st3" d="M47.766,55.618c-0.713,0-1.335-0.506-1.472-1.217c-0.024-0.125-2.495-12.418-11.523-12.844
			c-0.77-0.036-1.387-0.65-1.427-1.421c-0.04-0.77,0.511-1.444,1.273-1.561c0.441-0.068,10.894-1.816,11.754-12.031
			c0.061-0.726,0.634-1.301,1.359-1.367c0.736-0.062,1.393,0.399,1.583,1.102c0.032,0.116,3.259,11.626,11.863,12.141
			c0.714,0.042,1.298,0.583,1.396,1.292c0.098,0.708-0.319,1.388-0.994,1.622c-0.121,0.042-12.118,4.311-12.312,12.819
			c-0.018,0.767-0.61,1.396-1.375,1.46C47.85,55.616,47.807,55.618,47.766,55.618z M40.024,39.889
			c3.878,1.969,6.231,5.746,7.587,8.877c2.026-4.021,5.941-6.787,8.949-8.427c-4.134-1.843-6.783-5.651-8.334-8.723
			C46.433,35.976,42.955,38.484,40.024,39.889z"/>
		<path class="st14" d="M26.167,43.651c0,0,2.411,8.954,9.352,9.369c0,0-9.266,3.201-9.422,10.045c0,0-1.824-9.6-9.142-9.944
			C16.955,53.121,25.478,51.83,26.167,43.651z"/>
		<path class="st3" d="M26.095,64.565c-0.713,0-1.337-0.508-1.472-1.22c-0.016-0.082-1.704-8.442-7.739-8.727
			c-0.77-0.036-1.387-0.65-1.427-1.421c-0.04-0.77,0.511-1.444,1.273-1.561c0.296-0.047,7.364-1.242,7.942-8.112
			c0.061-0.726,0.635-1.303,1.36-1.368c0.73-0.062,1.392,0.399,1.582,1.102l0,0c0.021,0.079,2.228,7.92,7.994,8.265
			c0.715,0.042,1.299,0.584,1.397,1.293c0.098,0.709-0.319,1.388-0.996,1.622c-0.081,0.028-8.282,2.953-8.413,8.661
			c-0.018,0.768-0.611,1.397-1.376,1.461C26.178,64.563,26.137,64.565,26.095,64.565z M21.577,53.038
			c2.106,1.332,3.523,3.394,4.447,5.279c1.377-2.232,3.515-3.871,5.365-4.972c-2.287-1.27-3.884-3.35-4.941-5.224
			C25.274,50.408,23.433,51.997,21.577,53.038z"/>
		<path class="st14" d="M26.167,16.993c0,0,2.411,8.954,9.352,9.37c0,0-9.266,3.201-9.422,10.045c0,0-1.824-9.6-9.142-9.944
			C16.955,26.464,25.478,25.173,26.167,16.993z"/>
		<path class="st3" d="M26.095,37.908c-0.713,0-1.337-0.508-1.472-1.22c-0.016-0.082-1.704-8.442-7.739-8.727
			c-0.77-0.036-1.387-0.65-1.427-1.421c-0.04-0.77,0.511-1.444,1.273-1.561c0.296-0.047,7.364-1.242,7.942-8.113
			c0.061-0.726,0.635-1.303,1.36-1.368c0.73-0.069,1.392,0.4,1.582,1.102l0,0c0.021,0.079,2.228,7.92,7.994,8.266
			c0.714,0.043,1.299,0.584,1.396,1.293c0.098,0.709-0.32,1.389-0.996,1.622c-0.081,0.028-8.282,2.952-8.413,8.661
			c-0.018,0.768-0.611,1.397-1.376,1.461C26.178,37.906,26.137,37.908,26.095,37.908z M21.577,26.381
			c2.107,1.332,3.523,3.394,4.447,5.279c1.376-2.233,3.515-3.871,5.365-4.972c-2.287-1.27-3.884-3.351-4.941-5.225
			C25.274,23.751,23.433,25.34,21.577,26.381z"/>
		<path class="st3" d="M178.624,78.751c-0.387,0-0.774-0.149-1.068-0.447c-0.582-0.59-0.575-1.539,0.015-2.121l37.83-37.301
			c0.59-0.582,1.539-0.575,2.121,0.016c0.582,0.59,0.575,1.539-0.015,2.121l-37.83,37.301
			C179.385,78.607,179.005,78.751,178.624,78.751z"/>
		<circle class="st11" cx="216.651" cy="39.951" r="23"/>
		<path class="st3" d="M216.651,64.45c-13.509,0-24.5-10.99-24.5-24.5s10.991-24.5,24.5-24.5c13.509,0,24.5,10.99,24.5,24.5
			S230.16,64.45,216.651,64.45z M216.651,18.45c-11.855,0-21.5,9.645-21.5,21.5s9.645,21.5,21.5,21.5s21.5-9.645,21.5-21.5
			S228.506,18.45,216.651,18.45z"/>
		<path class="st3" d="M217.453,152.45c-0.244,0-0.491-0.06-0.719-0.185l-30.9-16.93c-0.727-0.398-0.993-1.31-0.595-2.036
			c0.398-0.727,1.31-0.991,2.036-0.595l30.9,16.93c0.727,0.398,0.993,1.31,0.595,2.036
			C218.498,152.169,217.983,152.45,217.453,152.45z"/>
		
			<ellipse transform="matrix(0.2521 -0.9677 0.9677 0.2521 16.9813 323.2931)" class="st22" cx="217.647" cy="150.66" rx="22" ry="22"/>
		<path class="st3" d="M217.687,174.156c-8.18,0-16.137-4.27-20.464-11.872c-3.105-5.455-3.899-11.794-2.237-17.847
			c1.662-6.053,5.583-11.097,11.038-14.201c11.261-6.408,25.638-2.461,32.047,8.8c6.409,11.263,2.461,25.64-8.8,32.049h-0.001
			C225.612,173.167,221.624,174.156,217.687,174.156z M217.615,130.151c-3.509,0-6.975,0.909-10.107,2.692
			c-4.759,2.708-8.179,7.108-9.629,12.389c-1.45,5.28-0.757,10.809,1.951,15.567c5.592,9.824,18.133,13.267,27.957,7.678h-0.001
			c9.824-5.591,13.268-18.133,7.677-27.957c-2.708-4.759-7.108-8.179-12.388-9.628C221.271,130.396,219.437,130.151,217.615,130.151
			z M228.529,169.781h0.01H228.529z"/>
		<path class="st3" d="M132.456,208.45c-0.062,0-0.125-0.004-0.188-0.012c-0.822-0.103-1.405-0.853-1.302-1.675l6.05-48.369
			c0.103-0.821,0.856-1.401,1.674-1.302c0.822,0.102,1.405,0.852,1.302,1.675l-6.05,48.369
			C133.848,207.895,133.202,208.45,132.456,208.45z"/>
		
			<ellipse transform="matrix(0.1322 -0.9912 0.9912 0.1322 -90.1951 310.8731)" class="st21" cx="132.455" cy="206.951" rx="22" ry="22"/>
		<path class="st3" d="M132.458,230.439c-6.141,0-12.276-2.386-16.877-7.133c-9.018-9.304-8.786-24.211,0.518-33.23
			c4.507-4.369,10.431-6.716,16.723-6.623c6.276,0.099,12.139,2.635,16.507,7.142c9.018,9.304,8.786,24.211-0.518,33.23
			C144.253,228.242,138.352,230.439,132.458,230.439z M132.452,186.46c-5.143,0-10.289,1.917-14.265,5.77
			c-8.116,7.867-8.319,20.872-0.452,28.988c7.868,8.116,20.872,8.318,28.988,0.452c8.116-7.867,8.319-20.872,0.452-28.988
			C143.161,188.542,137.809,186.46,132.452,186.46z"/>
		<path class="st3" d="M96.465,111.57c-0.009,0-0.019,0-0.028,0l-58.45-1.069c-0.829-0.016-1.488-0.699-1.472-1.527
			c0.015-0.828,0.711-1.482,1.527-1.473l58.45,1.069c0.829,0.016,1.488,0.699,1.472,1.527
			C97.95,110.917,97.281,111.57,96.465,111.57z"/>
		
			<ellipse transform="matrix(0.3908 -0.9205 0.9205 0.3908 -76.8071 101.7103)" class="st22" cx="38.438" cy="108.882" rx="22" ry="22"/>
		<path class="st3" d="M38.399,132.38c-3.482,0-7.016-0.776-10.345-2.416c-11.625-5.726-16.423-19.842-10.698-31.466
			c2.774-5.631,7.574-9.845,13.517-11.865c5.942-2.021,12.316-1.605,17.948,1.168c11.624,5.726,16.423,19.841,10.698,31.466
			C55.433,127.561,47.075,132.38,38.399,132.38z M18.702,99.161l1.346,0.663c-4.995,10.14-0.809,22.453,9.332,27.448
			c10.144,4.998,22.455,0.809,27.449-9.332c4.995-10.14,0.808-22.453-9.331-27.448c-4.914-2.42-10.474-2.781-15.657-1.02
			c-5.184,1.763-9.372,5.438-11.792,10.352L18.702,99.161z"/>
		<path class="st3" d="M118.086,72.341c-0.488,0-0.967-0.237-1.255-0.676l-21.63-32.891c-0.455-0.692-0.263-1.622,0.429-2.077
			c0.692-0.456,1.623-0.265,2.078,0.429l21.63,32.891c0.455,0.692,0.263,1.622-0.429,2.077
			C118.655,72.261,118.369,72.341,118.086,72.341z"/>
		<ellipse transform="matrix(0.6378 -0.7702 0.7702 0.6378 5.6909 88.0324)" class="st21" cx="96.45" cy="37.965" rx="22" ry="22"/>
		<path class="st3" d="M96.416,61.465c-3.144,0-6.335-0.634-9.395-1.974c-5.75-2.519-10.174-7.125-12.459-12.972
			c-2.285-5.847-2.156-12.233,0.362-17.982c2.519-5.75,7.125-10.175,12.972-12.46c5.847-2.284,12.233-2.154,17.982,0.362l0,0
			c11.869,5.199,17.296,19.085,12.097,30.954C114.116,56.204,105.47,61.464,96.416,61.465z M96.456,17.454
			c-2.522,0-5.048,0.472-7.468,1.417c-5.1,1.993-9.119,5.854-11.315,10.869c-2.197,5.016-2.31,10.587-0.316,15.687
			c1.993,5.101,5.853,9.119,10.869,11.316c10.354,4.537,22.467-0.199,27.002-10.553c4.535-10.354-0.199-22.468-10.553-27.003l0,0
			C102.039,18.033,99.249,17.454,96.456,17.454z"/>
		<path class="st4" d="M113.709,147.806c8.328,6.955,19.046,11.145,30.745,11.145c26.51,0,48-21.49,48-48s-21.49-48-48-48
			c-26.51,0-48,21.49-48,48c0,10.167,3.17,19.588,8.562,27.35L113.709,147.806z"/>
		<path class="st3" d="M144.455,160.45c-11.572,0-22.832-4.082-31.707-11.493c-0.636-0.531-0.721-1.477-0.19-2.113
			c0.531-0.635,1.477-0.72,2.113-0.189c8.336,6.962,18.914,10.796,29.784,10.796c25.64,0,46.5-20.859,46.5-46.5
			s-20.86-46.5-46.5-46.5c-25.64,0-46.5,20.859-46.5,46.5c0,9.523,2.868,18.685,8.294,26.494c0.473,0.68,0.304,1.614-0.376,2.087
			c-0.681,0.474-1.615,0.305-2.088-0.376c-5.777-8.314-8.83-18.066-8.83-28.205c0-27.294,22.206-49.5,49.5-49.5
			c27.294,0,49.5,22.206,49.5,49.5S171.749,160.45,144.455,160.45z"/>
		<path class="st10" d="M238.055,112.29c0.11,7.92-0.75,15.69-2.49,23.17c-3.19-3.77-7.44-6.35-12.05-7.53
			c0.76-5.1,1.11-10.33,1.04-15.66c-0.24-17.73-5.33-34.35-14-48.59c1.95,0.5,4,0.77,6.1,0.77c2.4,0,4.73-0.35,6.92-1
			C232.515,77.701,237.805,94.441,238.055,112.29z"/>
		<path class="st10" d="M192.155,39.951c0,0.55,0.02,1.11,0.06,1.65c-13.09-11.73-29.37-19.97-47.32-23.21
			c17.64,0.39,34.17,5.7,48.27,14.58C192.515,35.191,192.155,37.531,192.155,39.951z"/>
		<path class="st10" d="M216.495,174.12c-6.39,7.75-14.08,14.56-22.9,20.14c-0.44,0.27-0.7,0.75-0.7,1.26v44.52h-13.5v-44.52
			c10.25-6.48,19.21-14.83,26.38-24.58C209.035,172.831,212.725,173.931,216.495,174.12z"/>
	</g>
</g>
</svg>
